<?xml version="1.0" encoding="UTF-8"?><svg id="Layer_1" xmlns="http://www.w3.org/2000/svg" viewBox="0 0 1400 800"><defs><style>.cls-1{fill:none;}.cls-1,.cls-2{stroke:#e1e9cd;stroke-miterlimit:10;stroke-width:7.83px;}.cls-2,.cls-3{fill:#e0e6ca;}.cls-4{fill:#fac9ca;}.cls-4,.cls-5,.cls-6,.cls-7,.cls-8,.cls-3,.cls-9,.cls-10{stroke-width:0px;}.cls-5{fill:#6c9068;}.cls-6{fill:#3e6748;}.cls-7{fill:#e0dfdd;}.cls-8{fill:#e1e9cd;}.cls-9{fill:#8dac96;}.cls-10{fill:#fef2f0;}</style></defs><rect class="cls-4" width="1400" height="800"/><path class="cls-10" d="m1067.73,508.59c5.37-2.6,1.25-19.98-.96-40.99-2.51-23.89,11.13-37.74,53.01-73.08,41.89-35.34,80.5-44.72,133.73-51.27,53.23-6.54,74.17,1.31,74.17,1.31,0,0-32.51,23.34-41.01,46.25-8.51,22.91-28.79,66.75-22.25,82.46,6.54,15.71,20.07-25.31,33.16-54.54,13.09-29.23,38.39-54.1,51.7-62.17,12.22-7.41,17.08-10.04,50.72,6.63v-208.44c-282.75-111.69-700.38-98.74-852.54,40.47-152.16,139.21-90.86,421.33,35.61,430.58,132.74,9.71,309.58-82.18,417.63-72.84,29.07,2.51,58.56,12.07,88.26,25.45-3.43-2.06-7.04-4.36-10.85-6.97-37.3-25.52-20.76-57.84-10.39-62.85Z"/><path class="cls-10" d="m1346.45,659.14c-27.92-5.67-82.9-41.45-93.59-46.03-10.69-4.58-5.24,7.42,8.29,25.31,13.53,17.89,39.27,28.36,66.32,29.23,27.05.87,62.83,2.18,62.83,2.18,0,0-12.87,15.05-28.58,26.4-5.83,4.21-12.63,9.03-21.28,13.72,20.07,6.28,39.95,10.04,59.56,10.22v-58.5c-14.6,5.3-33.46,1.56-53.55-2.53Z"/><path class="cls-10" d="m1168.87,576.24s-11.34,5.67-23.12,12.22c-7.47,4.15-17.66,6.44-33.62,1.08,12.07,6.13,24.16,12.74,36.26,19.63,6.49-8.48,14.39-17.3,22.45-27.04l-1.96-5.89Z"/><path class="cls-10" d="m1275.55,563.81c-11.13,1.09,3.05,16.58,15.27,27.05,12.22,10.47,42.1,11.13,89.88,14.83,7.56.59,13.93.66,19.3.36v-23.15c-9.5.19-19.67.32-29.56.32-29.23,0-83.77-20.51-94.9-19.42Z"/><path class="cls-9" d="m1112.13,589.53c-7.73-3.93-15.45-7.65-23.16-11.12,8.87,5.32,16.51,8.89,23.16,11.12Z"/><path class="cls-9" d="m1393.08,560.56c-3.75.43-7.82.73-12.14.91-4.32.12-8.88.18-13.59-.04-2.36-.06-4.75-.26-7.17-.41-1.21-.07-2.42-.22-3.65-.33-1.22-.12-2.45-.22-3.68-.37-4.92-.6-9.9-1.3-14.85-2.24l-3.71-.7c-1.23-.24-2.46-.53-3.68-.8-1.23-.27-2.45-.54-3.67-.81-1.21-.3-2.42-.61-3.62-.91-1.2-.3-2.4-.6-3.59-.9-1.18-.33-2.36-.67-3.53-1-1.17-.33-2.33-.66-3.48-.99-1.16-.32-2.28-.71-3.41-1.06-1.12-.36-2.24-.71-3.34-1.06-.55-.18-1.1-.35-1.65-.52-.54-.19-1.08-.38-1.62-.57-2.14-.75-4.24-1.49-6.28-2.21-2.02-.78-3.98-1.53-5.88-2.27-.95-.37-1.89-.72-2.8-1.09-.91-.38-1.79-.75-2.66-1.12-1.74-.73-3.41-1.43-5-2.1-1.58-.69-3.06-1.39-4.46-2.02-1.4-.64-2.71-1.23-3.92-1.79-1.21-.55-2.29-1.11-3.28-1.59-1.63-.8-2.97-1.46-3.99-1.96-13.65,8-30.95,17.79-47.95,26.9,1.04.96,2.58,2.37,4.55,4.16.49.44,1,.92,1.54,1.4.55.47,1.13.96,1.74,1.47,1.21,1.03,2.51,2.14,3.91,3.32.7.59,1.4,1.22,2.17,1.82.76.6,1.55,1.22,2.36,1.86,1.62,1.27,3.31,2.63,5.1,4,1.82,1.33,3.72,2.72,5.68,4.16.49.36.99.72,1.49,1.09.5.36,1.03.7,1.54,1.06,1.04.71,2.09,1.43,3.16,2.15,1.07.73,2.16,1.46,3.26,2.21,1.12.71,2.26,1.43,3.41,2.15,1.15.73,2.31,1.46,3.48,2.2,1.17.74,2.4,1.42,3.61,2.14,1.22.71,2.45,1.44,3.68,2.16,1.23.74,2.52,1.39,3.79,2.1,1.28.69,2.56,1.39,3.85,2.1,1.29.71,2.62,1.34,3.94,2.02,1.32.67,2.65,1.34,3.99,2.01,1.35.63,2.71,1.27,4.07,1.91,1.36.63,2.72,1.29,4.09,1.89l4.15,1.79c2.75,1.23,5.57,2.29,8.36,3.42,1.39.57,2.8,1.07,4.2,1.59,1.4.52,2.8,1.03,4.19,1.54,5.62,1.92,11.17,3.75,16.62,5.26,5.43,1.57,10.75,2.85,15.81,3.99,5.07,1.1,9.88,2.03,14.35,2.75,4.47.72,8.58,1.29,12.24,1.68,3.65.42,6.85.68,9.49.85,5.27.35,8.3.3,8.3.3,0,0-3.02.07-8.3-.22-2.64-.15-5.84-.38-9.5-.76-3.66-.36-7.78-.89-12.26-1.57-4.48-.68-9.31-1.57-14.4-2.62-5.08-1.1-10.42-2.33-15.88-3.85-5.48-1.46-11.06-3.24-16.71-5.11-1.4-.5-2.81-1-4.22-1.5-1.41-.51-2.83-.99-4.23-1.55-2.8-1.1-5.65-2.14-8.42-3.35l-4.18-1.76c-1.39-.6-2.75-1.24-4.13-1.86-1.37-.63-2.74-1.25-4.1-1.88-1.35-.66-2.69-1.32-4.02-1.98-1.33-.67-2.68-1.29-3.98-1.99-1.3-.69-2.6-1.38-3.89-2.07-1.28-.7-2.59-1.34-3.83-2.07-1.25-.72-2.49-1.43-3.72-2.13-1.23-.71-2.46-1.39-3.65-2.12-1.19-.73-2.36-1.46-3.52-2.18-1.16-.72-2.31-1.43-3.45-2.13-1.11-.74-2.21-1.47-3.29-2.19-1.08-.72-2.15-1.43-3.2-2.13-.52-.35-1.05-.69-1.56-1.05-.51-.36-1.01-.72-1.5-1.08-1.99-1.43-3.91-2.81-5.75-4.13-1.81-1.37-3.52-2.71-5.16-3.98-.82-.63-1.62-1.25-2.39-1.85-.78-.59-1.49-1.23-2.21-1.81-1.42-1.18-2.75-2.29-3.98-3.31-.62-.51-1.2-1-1.77-1.47-.56-.48-1.06-.95-1.56-1.39-2.32-2.08-4.04-3.63-5.07-4.56-9.76,5.21-19.36,10.16-28.06,14.39.97,1.09,2.41,2.72,4.26,4.8,1.8,2.05,4.01,4.49,6.54,7.3,2.52,2.82,5.42,5.96,8.57,9.4,1.57,1.73,3.24,3.49,4.95,5.33,1.72,1.84,3.48,3.74,5.33,5.67,1.84,1.93,3.73,3.92,5.67,5.95,1.95,2.01,3.95,4.07,5.97,6.16,2.05,2.07,4.13,4.17,6.24,6.31,2.13,2.11,4.29,4.24,6.46,6.39,2.2,2.12,4.42,4.26,6.65,6.41,2.26,2.11,4.49,4.27,6.8,6.36,4.55,4.22,9.22,8.32,13.88,12.28,4.69,3.92,9.39,7.68,14.12,11.06,4.75,3.33,9.75,5.95,14.57,8.22,4.84,2.24,9.53,4.11,13.92,5.68,8.77,3.16,16.27,5.24,21.53,6.6,5.27,1.36,8.32,1.98,8.32,1.98,0,0-3.06-.58-8.34-1.87-5.28-1.3-12.81-3.29-21.64-6.34-4.41-1.53-9.14-3.34-14.03-5.53-4.87-2.22-9.93-4.78-14.78-8.09-4.81-3.34-9.56-7.05-14.31-10.93-4.71-3.92-9.45-7.97-14.06-12.14-2.34-2.06-4.6-4.2-6.89-6.29-2.26-2.12-4.51-4.24-6.74-6.34-2.2-2.13-4.39-4.24-6.55-6.32-2.14-2.11-4.25-4.19-6.33-6.24-2.06-2.07-4.08-4.1-6.06-6.1-1.96-2.01-3.88-3.97-5.75-5.89-1.87-1.91-3.66-3.8-5.4-5.61-1.74-1.82-3.43-3.57-5.02-5.27-3.19-3.4-6.14-6.51-8.7-9.31-2.57-2.79-4.83-5.21-6.65-7.23-2.21-2.43-3.84-4.23-4.79-5.28-3.47,1.67-6.78,3.2-9.88,4.58.34.83.77,1.88,1.29,3.14.69,1.68,1.48,3.76,2.41,6.13.91,2.37,1.91,5.06,2.98,8,.52,1.47,1.07,3.01,1.64,4.6.54,1.6,1.11,3.25,1.69,4.94,1.14,3.4,2.3,6.99,3.48,10.72,1.75,5.66,3.58,11.61,5.43,17.63,49.45,29.55,98.77,59.19,146.97,74.28,8.64-4.69,15.44-9.5,21.28-13.72,15.71-11.34,28.58-26.4,28.58-26.4,0,0-35.78-1.31-62.83-2.18-27.05-.87-52.79-11.34-66.32-29.23-13.53-17.89-18.98-29.89-8.29-25.31,10.69,4.58,65.66,40.36,93.59,46.03,20.1,4.08,38.95,7.82,53.55,2.53v-55.61c-5.37.3-11.74.22-19.3-.36-47.78-3.71-77.66-4.36-89.88-14.83-12.22-10.47-26.4-25.96-15.27-27.05,11.13-1.09,65.66,19.42,94.9,19.42,9.89,0,20.05-.13,29.56-.32v-23.32c-2.16.35-4.46.67-6.92.97Z"/><path class="cls-9" d="m1390.2,508.76c-1.79.25-3.59.57-5.42.76-.91.11-1.83.22-2.75.33-.92.08-1.85.17-2.78.25-1.86.19-3.73.27-5.6.37-.94.06-1.87.08-2.81.1-.93.02-1.87.04-2.8.06-1.87,0-3.73-.04-5.57-.08-1.84-.11-3.67-.17-5.48-.32-1.8-.18-3.59-.3-5.33-.53-1.74-.25-3.46-.43-5.13-.73-1.67-.31-3.3-.58-4.88-.89-1.57-.36-3.11-.7-4.59-1.04-1.47-.37-2.88-.79-4.24-1.15-1.37-.35-2.64-.8-3.86-1.19-1.22-.41-2.39-.76-3.46-1.17-2.14-.84-4.04-1.52-5.54-2.17-1.16-.52-2.13-.95-2.88-1.28-14.29,8.97-26.58,16.7-34.48,21.64-4.19,2.62-9.78,5.99-16.28,9.81.83.42,1.8.91,2.91,1.47.98.49,2.06,1.07,3.25,1.62,1.19.56,2.49,1.17,3.87,1.82,1.38.64,2.84,1.35,4.4,2.05,1.57.68,3.22,1.4,4.95,2.15.86.37,1.74.76,2.64,1.15.9.39,1.83.74,2.77,1.12,1.88.75,3.83,1.53,5.83,2.32,2.02.74,4.1,1.5,6.22,2.27.53.19,1.07.39,1.6.58.54.18,1.09.36,1.64.54,1.1.36,2.2.73,3.32,1.1,1.12.36,2.23.76,3.38,1.09,1.14.34,2.3.68,3.45,1.03,1.16.34,2.33.69,3.5,1.03,1.18.31,2.37.63,3.56.94,1.19.31,2.39.63,3.59.95,1.21.28,2.42.56,3.64.85,1.22.28,2.43.58,3.66.83l3.68.74c4.91,1,9.87,1.75,14.77,2.4,1.22.16,2.45.27,3.66.41,1.22.12,2.42.29,3.63.37,2.41.18,4.79.41,7.14.49,4.69.28,9.24.27,13.55.2,4.31-.13,8.38-.38,12.12-.77,2.47-.27,4.79-.56,6.95-.89v-52.51c-1.48.34-3,.64-4.54.96-1.72.33-3.48.64-5.26.93Z"/><path class="cls-9" d="m1187.23,618.29c-1.21-3.71-2.41-7.29-3.57-10.67-.59-1.69-1.17-3.33-1.73-4.92-.58-1.58-1.14-3.11-1.67-4.57-1.09-2.92-2.12-5.59-3.04-7.95-.95-2.35-1.75-4.4-2.46-6.08-.52-1.24-.96-2.28-1.31-3.1-.89.39-1.76.77-2.62,1.13-8.06,9.73-15.96,18.55-22.45,27.04,14.73,8.38,29.47,17.17,44.2,25.97-1.83-5.75-3.64-11.43-5.36-16.85Z"/><path class="cls-9" d="m1318.92,498.91c.53.24,1.12.52,1.77.82,1.48.68,3.31,1.35,5.4,2.21,1.04.42,2.2.78,3.39,1.2,1.2.41,2.45.87,3.79,1.24,1.34.38,2.72.81,4.17,1.2,1.46.35,2.96.72,4.51,1.1,1.56.34,3.17.63,4.81.96,1.65.31,3.35.52,5.06.8,1.72.26,3.49.4,5.27.61,1.78.17,3.6.26,5.42.4,1.83.06,3.67.13,5.52.16.93,0,1.85,0,2.78-.01.93,0,1.86,0,2.79-.05,1.86-.07,3.72-.13,5.57-.28.92-.07,1.85-.14,2.77-.2.92-.09,1.83-.19,2.74-.28,1.83-.16,3.62-.45,5.41-.67,1.78-.27,3.53-.54,5.25-.85,1.58-.3,3.13-.58,4.65-.91v-57.68c-.88.54-1.76,1.09-2.65,1.63-23.8,14.42-53.85,33.2-78.43,48.62Z"/><path class="cls-9" d="m1145.75,588.46c11.78-6.54,23.12-12.22,23.12-12.22,0,0,.4-.21,1.14-.6-.06-.04-.1-.07-.16-.11-.41-.24-.9-.47-1.44-.75-.54-.28-1.14-.59-1.79-.92-.32-.18-.67-.33-1.04-.48-.37-.16-.75-.32-1.14-.48-.79-.33-1.63-.69-2.51-1.06-.44-.19-.9-.38-1.36-.57-.47-.18-.96-.34-1.46-.52-1.99-.7-4.14-1.47-6.42-2.27-2.3-.74-4.75-1.45-7.27-2.22-1.26-.38-2.55-.77-3.85-1.16-1.3-.39-2.64-.7-3.98-1.06-2.68-.7-5.41-1.4-8.13-2.11-2.72-.74-5.47-1.34-8.17-1.95-2.7-.61-5.36-1.21-7.94-1.79-2.58-.57-5.06-1.18-7.44-1.62-2.37-.47-4.62-.91-6.69-1.32-8.29-1.63-13.81-2.72-13.81-2.72,0,0,5.53,1.05,13.83,2.63,2.08.39,4.32.82,6.7,1.27,2.38.42,4.87,1.02,7.45,1.57,2.58.56,5.25,1.14,7.95,1.74,2.71.59,5.47,1.17,8.19,1.89,2.73.69,5.46,1.38,8.15,2.06,1.34.35,2.68.65,3.99,1.03,1.3.38,2.59.76,3.86,1.13,2.53.75,4.99,1.44,7.3,2.17,2.29.79,4.46,1.54,6.45,2.23.5.18.99.33,1.46.51.47.19.93.38,1.37.57.89.37,1.74.72,2.53,1.05.4.16.78.32,1.15.48.37.15.73.3,1.06.48.67.34,1.28.65,1.84.93.55.29,1.06.52,1.48.76.16.1.3.19.44.28,1.19-.63,2.95-1.56,5.18-2.73l-.56.28s-.25-.5-.72-1.45c-.47-.94-1.12-2.35-2.1-4.03-.92-1.71-2.17-3.73-3.65-6.01-1.53-2.25-3.31-4.76-5.45-7.34-.53-.65-1.08-1.31-1.63-1.98-.58-.65-1.17-1.32-1.77-2-.59-.68-1.22-1.36-1.86-2.03-.64-.68-1.3-1.37-1.96-2.07-2.7-2.74-5.63-5.56-8.75-8.39-3.12-2.82-6.38-5.7-9.74-8.58-1.68-1.44-3.36-2.9-5.06-4.36-1.68-1.46-3.42-2.91-5.06-4.45-.83-.76-1.67-1.51-2.48-2.28-.8-.79-1.6-1.59-2.39-2.38-1.62-1.56-3.1-3.23-4.63-4.83-1.52-1.61-2.94-3.28-4.4-4.9-1.43-1.63-2.8-3.28-4.17-4.88-1.34-1.63-2.65-3.23-3.94-4.8-1.26-1.59-2.5-3.14-3.7-4.65-2.38-3.05-4.6-5.94-6.62-8.64-4.04-5.4-7.31-9.97-9.58-13.18-2.27-3.22-3.52-5.08-3.52-5.08,0,0,1.27,1.85,3.57,5.05,2.29,3.2,5.6,7.74,9.69,13.1,2.04,2.68,4.29,5.56,6.69,8.58,1.21,1.5,2.46,3.04,3.74,4.62,1.3,1.55,2.63,3.14,3.98,4.76,1.38,1.59,2.77,3.22,4.21,4.84,1.46,1.6,2.9,3.25,4.43,4.85,1.54,1.59,3.03,3.24,4.65,4.78.8.78,1.6,1.56,2.4,2.34.82.77,1.67,1.51,2.5,2.26,1.66,1.52,3.38,2.94,5.09,4.39,1.71,1.45,3.41,2.89,5.1,4.32,3.38,2.86,6.67,5.71,9.83,8.51,3.15,2.81,6.11,5.62,8.86,8.35.67.7,1.34,1.38,1.99,2.06.66.67,1.29,1.35,1.9,2.03.61.68,1.21,1.34,1.8,2,.57.68,1.12,1.34,1.67,1.99,2.18,2.59,4.01,5.11,5.58,7.38,1.53,2.29,2.81,4.33,3.76,6.07,1.02,1.72,1.67,3.11,2.15,4.05.44.88.69,1.37.72,1.43,4.87-2.58,11.79-6.23,19.71-10.43,0-.06,0-.12-.01-.18-.1-1.3-.29-3.17-.62-5.6-.66-4.83-1.96-11.72-3.92-19.91-1.95-8.2-4.5-17.71-7.26-27.9-2.76-10.19-5.7-21.07-8.42-32-1.36-5.47-2.66-10.95-3.87-16.37-1.2-5.42-2.35-10.75-3.23-15.97-1.77-10.43-2.53-20.32-2.21-28.78.16-4.23.56-8.09,1.14-11.48.59-3.39,1.34-6.3,2.14-8.63.78-2.34,1.61-4.1,2.23-5.26.63-1.16,1.06-1.72,1.06-1.72,0,0-.42.57-1.03,1.74-.61,1.17-1.4,2.94-2.15,5.29-.77,2.34-1.47,5.25-2.01,8.63-.54,3.38-.88,7.24-.98,11.45-.21,8.43.69,18.27,2.59,28.63.95,5.18,2.17,10.5,3.44,15.89,1.28,5.39,2.65,10.84,4.08,16.29,2.86,10.88,5.95,21.71,8.85,31.86,2.9,10.15,5.58,19.64,7.65,27.85,2.08,8.21,3.49,15.15,4.23,20.07.29,1.96.49,3.62.62,4.88,11.75-6.23,25.39-13.48,37.74-20.09-.31-1.21-.74-2.9-1.27-5.01-.23-1.17-.48-2.46-.75-3.87-.14-.7-.28-1.44-.43-2.2-.07-.38-.15-.77-.23-1.16-.06-.39-.11-.8-.17-1.21-.23-1.64-.47-3.38-.72-5.21-.15-.92-.21-1.86-.3-2.83-.09-.97-.17-1.96-.26-2.97-.08-1.01-.21-2.04-.24-3.1-.04-1.06-.09-2.13-.13-3.22-.04-1.09-.09-2.21-.13-3.33,0-1.13,0-2.28,0-3.44,0-1.16,0-2.34.01-3.53.01-1.19.1-2.4.14-3.62.05-1.22.11-2.45.17-3.7.07-1.24.2-2.49.3-3.76.11-1.26.21-2.53.32-3.82.15-1.28.31-2.57.46-3.86.16-1.29.29-2.6.49-3.9.2-1.3.4-2.61.61-3.92.81-5.26,1.9-10.55,3.07-15.82.63-2.62,1.26-5.25,1.94-7.85.35-1.3.71-2.59,1.06-3.88l.53-1.93c.19-.64.38-1.28.57-1.91.38-1.27.76-2.54,1.14-3.8.38-1.26.8-2.5,1.2-3.74.78-2.48,1.64-4.91,2.47-7.3.82-2.39,1.72-4.71,2.55-7,.9-2.26,1.73-4.49,2.61-6.64.88-2.15,1.73-4.23,2.6-6.23.85-2.01,1.72-3.93,2.54-5.77.82-1.84,1.66-3.59,2.44-5.26.81-1.66,1.54-3.24,2.29-4.71,1.45-2.95,2.78-5.48,3.88-7.57,2.22-4.16,3.61-6.47,3.61-6.47,0,0-1.36,2.33-3.54,6.51-1.08,2.09-2.38,4.64-3.8,7.6-.73,1.47-1.45,3.06-2.23,4.73-.76,1.68-1.57,3.43-2.38,5.29-.81,1.85-1.65,3.78-2.48,5.79-.85,2-1.68,4.1-2.53,6.25-.86,2.15-1.67,4.38-2.54,6.65-.8,2.29-1.68,4.62-2.47,7.01-.8,2.39-1.63,4.82-2.38,7.31-.38,1.24-.79,2.48-1.16,3.74-.36,1.26-.73,2.53-1.09,3.8-.18.64-.37,1.27-.55,1.91l-.51,1.93c-.34,1.29-.68,2.58-1.02,3.88-.65,2.6-1.25,5.22-1.85,7.84-1.11,5.26-2.14,10.54-2.89,15.78-.19,1.31-.38,2.61-.56,3.91-.18,1.3-.3,2.6-.45,3.88-.14,1.29-.28,2.57-.42,3.84-.09,1.27-.19,2.54-.28,3.8-.08,1.26-.2,2.5-.26,3.73-.04,1.24-.09,2.46-.13,3.67-.03,1.21-.1,2.41-.1,3.59,0,1.18.02,2.35.02,3.5.01,1.15.02,2.29.03,3.41.06,1.12.11,2.22.17,3.3.06,1.08.11,2.15.16,3.19.05,1.05.19,2.06.27,3.06.1,1,.2,1.98.29,2.94.1.96.17,1.89.32,2.8.27,1.81.53,3.53.77,5.14.06.4.12.8.18,1.19.08.39.16.76.23,1.14.15.74.3,1.46.44,2.15.28,1.38.54,2.64.78,3.79.49,1.87.9,3.4,1.21,4.56,14.2-7.6,26.47-14.24,31.8-17.3,3.84-2.2,11.6-6.76,21.59-12.66,0-.85.01-1.95.02-3.3.04-1.66.18-3.69.29-6.01.11-1.16.22-2.38.34-3.68.06-.65.12-1.31.19-1.99.09-.68.18-1.37.28-2.07.21-1.41.36-2.89.64-4.4.27-1.51.55-3.08.83-4.68.34-1.6.7-3.24,1.06-4.91.42-1.66.84-3.36,1.28-5.09.49-1.71.99-3.45,1.5-5.21.56-1.74,1.13-3.51,1.72-5.28.64-1.76,1.24-3.54,1.93-5.3.7-1.76,1.35-3.54,2.11-5.28l1.11-2.62c.37-.87.78-1.73,1.16-2.59.76-1.73,1.59-3.42,2.4-5.1.8-1.69,1.68-3.32,2.5-4.95.87-1.61,1.71-3.21,2.59-4.76,1.74-3.1,3.49-6.06,5.23-8.81.85-1.39,1.74-2.7,2.56-3.99.86-1.27,1.66-2.51,2.48-3.67,1.61-2.34,3.15-4.44,4.53-6.3,1.39-1.84,2.63-3.43,3.68-4.72,2.08-2.58,3.36-3.98,3.36-3.98,0,0-1.27,1.41-3.32,4.01-1.03,1.29-2.25,2.9-3.62,4.75-1.36,1.87-2.88,3.98-4.46,6.34-.81,1.17-1.6,2.42-2.44,3.69-.81,1.3-1.68,2.62-2.52,4.02-1.71,2.77-3.42,5.74-5.13,8.85-.85,1.55-1.68,3.16-2.53,4.77-.8,1.64-1.67,3.27-2.45,4.96-.8,1.68-1.6,3.38-2.34,5.11-.38.86-.77,1.72-1.13,2.59l-1.08,2.62c-.74,1.74-1.37,3.52-2.05,5.28-.67,1.76-1.24,3.55-1.87,5.3-.57,1.77-1.11,3.53-1.66,5.27-.48,1.76-.97,3.49-1.44,5.2-.42,1.72-.82,3.41-1.22,5.07-.34,1.67-.68,3.3-1,4.89-.27,1.6-.53,3.16-.78,4.66-.26,1.5-.4,2.97-.59,4.38-.09.7-.17,1.39-.26,2.06-.06.67-.11,1.33-.17,1.98-.11,1.28-.21,2.5-.3,3.65-.09,2.29-.2,4.28-.23,5.94,0,1,0,1.85,0,2.58,31.59-18.67,84.15-50,107.62-64.06v-81.73c-33.63-16.67-38.5-14.04-50.72-6.63-13.31,8.07-38.61,32.94-51.7,62.17-13.09,29.23-26.62,70.24-33.16,54.54-6.54-15.71,13.74-59.55,22.25-82.46,8.51-22.91,41.01-46.25,41.01-46.25,0,0-20.94-7.85-74.17-1.31-53.23,6.54-91.84,15.93-133.73,51.27-41.89,35.34-55.52,49.19-53.01,73.08,2.21,21.01,6.33,38.4.96,40.99-10.37,5.01-26.92,37.32,10.39,62.85,3.81,2.61,7.42,4.91,10.85,6.97,7.71,3.47,15.43,7.19,23.16,11.12,15.96,5.37,26.15,3.07,33.62-1.08Z"/><path class="cls-7" d="m1194.65,641.61c1.29,3.96,2.61,7.92,4.01,11.78.35.96.7,1.92,1.05,2.88.37.95.73,1.89,1.09,2.83.71,1.89,1.5,3.71,2.29,5.5,1.61,3.56,3.33,6.94,5.09,10.06,1.76,3.12,3.53,6.01,5.25,8.63,3.43,5.23,6.6,9.37,8.89,12.21,2.29,2.84,3.71,4.37,3.71,4.37,0,0-1.4-1.54-3.66-4.4-2.26-2.86-5.39-7.03-8.76-12.28-1.69-2.62-3.43-5.53-5.16-8.66-1.73-3.13-3.4-6.51-4.98-10.08-.77-1.78-1.54-3.62-2.23-5.5-.35-.94-.71-1.89-1.06-2.84-.34-.96-.68-1.92-1.02-2.88-1.37-3.86-2.65-7.82-3.9-11.79-.59-1.92-1.18-3.84-1.77-5.76l-.88-.53c.68,2.15,1.37,4.31,2.06,6.47Z"/><path class="cls-7" d="m1292.37,506.39c.02-1.65.14-3.64.23-5.94.1-1.15.2-2.36.3-3.65.05-.64.11-1.3.17-1.98.08-.67.17-1.36.26-2.06.19-1.4.33-2.87.59-4.38.25-1.51.51-3.06.78-4.66.32-1.59.66-3.22,1-4.89.4-1.66.81-3.35,1.22-5.07.47-1.71.95-3.44,1.44-5.2.55-1.74,1.08-3.5,1.66-5.27.62-1.75,1.2-3.54,1.87-5.3.68-1.76,1.31-3.54,2.05-5.28l1.08-2.62c.36-.87.76-1.73,1.13-2.59.74-1.73,1.55-3.43,2.34-5.11.78-1.69,1.64-3.33,2.45-4.96.85-1.62,1.68-3.22,2.53-4.77,1.71-3.11,3.42-6.08,5.13-8.85.84-1.4,1.7-2.72,2.52-4.02.85-1.28,1.64-2.53,2.44-3.69,1.58-2.36,3.11-4.47,4.46-6.34,1.37-1.85,2.59-3.46,3.62-4.75,2.05-2.6,3.32-4.01,3.32-4.01,0,0-1.28,1.4-3.36,3.98-1.05,1.29-2.28,2.88-3.68,4.72-1.38,1.86-2.92,3.95-4.53,6.3-.82,1.16-1.62,2.4-2.48,3.67-.83,1.29-1.71,2.61-2.56,3.99-1.74,2.76-3.49,5.71-5.23,8.81-.87,1.55-1.72,3.15-2.59,4.76-.82,1.63-1.71,3.26-2.5,4.95-.82,1.68-1.64,3.37-2.4,5.1-.39.86-.79,1.72-1.16,2.59l-1.11,2.62c-.76,1.74-1.41,3.52-2.11,5.28-.69,1.76-1.29,3.55-1.93,5.3-.59,1.77-1.15,3.54-1.72,5.28-.51,1.76-1.01,3.5-1.5,5.21-.43,1.73-.86,3.42-1.28,5.09-.36,1.68-.71,3.32-1.06,4.91-.29,1.61-.56,3.17-.83,4.68-.28,1.51-.43,2.99-.64,4.4-.1.71-.19,1.4-.28,2.07-.06.68-.13,1.34-.19,1.99-.12,1.29-.24,2.52-.34,3.68-.11,2.32-.25,4.35-.29,6.01-.01,1.35-.02,2.46-.02,3.3-9.99,5.9-17.75,10.46-21.59,12.66-5.33,3.06-17.6,9.69-31.8,17.3-.31-1.17-.72-2.7-1.21-4.56-.23-1.14-.49-2.41-.78-3.79-.14-.69-.29-1.41-.44-2.15-.08-.37-.15-.75-.23-1.14-.06-.39-.12-.79-.18-1.19-.24-1.61-.5-3.33-.77-5.14-.16-.9-.23-1.84-.32-2.8-.09-.96-.19-1.94-.29-2.94-.09-1-.23-2.02-.27-3.06-.05-1.04-.11-2.11-.16-3.19-.06-1.08-.11-2.18-.17-3.3,0-1.12-.02-2.26-.03-3.41,0-1.15-.02-2.32-.02-3.5,0-1.18.07-2.38.1-3.59.04-1.21.09-2.43.13-3.67.06-1.23.17-2.48.26-3.73.09-1.26.19-2.52.28-3.8.14-1.27.28-2.55.42-3.84.15-1.29.27-2.59.45-3.88.19-1.3.37-2.6.56-3.91.75-5.24,1.78-10.52,2.89-15.78.6-2.62,1.2-5.24,1.85-7.84.34-1.3.68-2.59,1.02-3.88l.51-1.93c.18-.64.37-1.28.55-1.91.36-1.27.73-2.54,1.09-3.8.37-1.26.77-2.5,1.16-3.74.75-2.49,1.58-4.92,2.38-7.31.79-2.4,1.67-4.72,2.47-7.01.87-2.27,1.68-4.51,2.54-6.65.85-2.15,1.68-4.24,2.53-6.25.82-2.01,1.67-3.94,2.48-5.79.8-1.85,1.62-3.61,2.38-5.29.79-1.66,1.51-3.26,2.23-4.73,1.42-2.96,2.72-5.51,3.8-7.6,2.18-4.18,3.54-6.51,3.54-6.51,0,0-1.39,2.31-3.61,6.47-1.1,2.08-2.43,4.62-3.88,7.57-.74,1.47-1.48,3.05-2.29,4.71-.78,1.67-1.61,3.42-2.44,5.26-.83,1.85-1.69,3.77-2.54,5.77-.87,2-1.72,4.08-2.6,6.23-.89,2.14-1.72,4.37-2.61,6.64-.83,2.29-1.73,4.6-2.55,7-.83,2.39-1.69,4.81-2.47,7.3-.4,1.24-.82,2.48-1.2,3.74-.38,1.26-.76,2.53-1.14,3.8-.19.64-.38,1.27-.57,1.91l-.53,1.93c-.35,1.29-.71,2.58-1.06,3.88-.68,2.6-1.31,5.23-1.94,7.85-1.17,5.27-2.26,10.56-3.07,15.82-.2,1.31-.41,2.62-.61,3.92-.2,1.3-.33,2.61-.49,3.9-.16,1.29-.31,2.58-.46,3.86-.11,1.28-.22,2.55-.32,3.82-.1,1.26-.23,2.51-.3,3.76-.06,1.24-.11,2.48-.17,3.7-.05,1.22-.13,2.42-.14,3.62,0,1.19-.01,2.37-.01,3.53,0,1.16,0,2.31,0,3.44.05,1.13.09,2.24.13,3.33.04,1.09.09,2.17.13,3.22.03,1.06.17,2.09.24,3.1.09,1.01.18,2,.26,2.97.09.97.15,1.92.3,2.83.26,1.84.5,3.58.72,5.21.06.41.12.81.17,1.21.08.39.15.78.23,1.16.15.76.29,1.49.43,2.2.27,1.41.53,2.7.75,3.87.54,2.11.96,3.79,1.27,5.01-12.35,6.61-25.99,13.86-37.74,20.09-.13-1.26-.33-2.92-.62-4.88-.74-4.92-2.15-11.86-4.23-20.07-2.07-8.21-4.76-17.7-7.65-27.85-2.9-10.15-5.99-20.98-8.85-31.86-1.43-5.44-2.81-10.9-4.08-16.29-1.27-5.39-2.49-10.71-3.44-15.89-1.9-10.36-2.8-20.2-2.59-28.63.1-4.21.44-8.07.98-11.45.54-3.38,1.25-6.29,2.01-8.63.75-2.35,1.54-4.11,2.15-5.29.61-1.17,1.03-1.74,1.03-1.74,0,0-.43.56-1.06,1.72-.62,1.16-1.44,2.92-2.23,5.26-.8,2.33-1.54,5.24-2.14,8.63-.59,3.39-.98,7.25-1.14,11.48-.32,8.46.44,18.35,2.21,28.78.88,5.22,2.03,10.56,3.23,15.97,1.2,5.41,2.51,10.9,3.87,16.37,2.72,10.94,5.66,21.81,8.42,32,2.76,10.19,5.31,19.7,7.26,27.9,1.96,8.19,3.26,15.08,3.92,19.91.33,2.43.51,4.3.62,5.6,0,.06,0,.12.01.18-7.92,4.2-14.83,7.86-19.71,10.43-.03-.06-.28-.55-.72-1.43-.48-.94-1.13-2.33-2.15-4.05-.96-1.75-2.24-3.78-3.76-6.07-1.56-2.27-3.4-4.78-5.58-7.38-.54-.65-1.1-1.31-1.67-1.99-.59-.65-1.19-1.32-1.8-2-.6-.68-1.24-1.36-1.9-2.03-.65-.68-1.32-1.36-1.99-2.06-2.74-2.74-5.71-5.54-8.86-8.35-3.15-2.8-6.45-5.66-9.83-8.51-1.69-1.43-3.39-2.87-5.1-4.32-1.71-1.46-3.43-2.87-5.09-4.39-.83-.75-1.68-1.49-2.5-2.26-.8-.78-1.6-1.56-2.4-2.34-1.62-1.54-3.12-3.19-4.65-4.78-1.53-1.59-2.97-3.25-4.43-4.85-1.44-1.62-2.82-3.25-4.21-4.84-1.35-1.62-2.68-3.2-3.98-4.76-1.28-1.58-2.52-3.12-3.74-4.62-2.4-3.02-4.65-5.9-6.69-8.58-4.09-5.36-7.4-9.9-9.69-13.1-2.29-3.2-3.57-5.05-3.57-5.05,0,0,1.26,1.86,3.52,5.08,2.26,3.21,5.53,7.78,9.58,13.18,2.02,2.7,4.24,5.6,6.62,8.64,1.2,1.51,2.44,3.07,3.7,4.65,1.29,1.57,2.6,3.17,3.94,4.8,1.37,1.6,2.74,3.25,4.17,4.88,1.45,1.61,2.88,3.29,4.4,4.9,1.53,1.6,3.01,3.27,4.63,4.83.8.79,1.59,1.59,2.39,2.38.81.78,1.66,1.52,2.48,2.28,1.64,1.54,3.38,2.99,5.06,4.45,1.7,1.46,3.38,2.92,5.06,4.36,3.35,2.88,6.62,5.76,9.74,8.58,3.11,2.83,6.04,5.65,8.75,8.39.66.7,1.32,1.39,1.96,2.07.65.67,1.27,1.35,1.86,2.03.6.68,1.19,1.34,1.77,2,.56.67,1.1,1.33,1.63,1.98,2.14,2.59,3.92,5.09,5.45,7.34,1.49,2.28,2.74,4.3,3.65,6.01.98,1.68,1.63,3.09,2.1,4.03.47.94.72,1.45.72,1.45l.56-.28c-2.23,1.18-3.99,2.11-5.18,2.73-.14-.09-.28-.18-.44-.28-.42-.24-.92-.48-1.48-.76-.56-.28-1.17-.59-1.84-.93-.33-.18-.69-.33-1.06-.48-.37-.15-.76-.31-1.15-.48-.79-.33-1.64-.68-2.53-1.05-.45-.19-.9-.37-1.37-.57-.47-.18-.97-.34-1.46-.51-2-.69-4.16-1.44-6.45-2.23-2.31-.73-4.77-1.42-7.3-2.17-1.27-.37-2.56-.75-3.86-1.13-1.31-.38-2.65-.68-3.99-1.03-2.69-.68-5.42-1.37-8.15-2.06-2.72-.73-5.48-1.3-8.19-1.89-2.71-.59-5.37-1.17-7.95-1.74-2.58-.55-5.07-1.15-7.45-1.57-2.38-.45-4.63-.88-6.7-1.27-8.3-1.58-13.83-2.63-13.83-2.63,0,0,5.53,1.09,13.81,2.72,2.07.41,4.32.85,6.69,1.32,2.38.44,4.86,1.05,7.44,1.62,2.57.58,5.24,1.18,7.94,1.79,2.7.61,5.46,1.2,8.17,1.95,2.73.71,5.45,1.41,8.13,2.11,1.34.36,2.68.67,3.98,1.06,1.3.39,2.58.78,3.85,1.16,2.52.77,4.97,1.47,7.27,2.22,2.28.81,4.43,1.57,6.42,2.27.5.18.99.34,1.46.52.46.2.92.39,1.36.57.88.37,1.72.73,2.51,1.06.39.17.78.33,1.14.48.37.15.72.31,1.04.48.65.34,1.25.64,1.79.92.54.28,1.03.52,1.44.75.06.04.11.07.16.11-.74.39-1.14.6-1.14.6l1.96,5.89c.85-.36,1.73-.74,2.62-1.13.35.82.78,1.86,1.31,3.1.71,1.68,1.51,3.73,2.46,6.08.93,2.36,1.96,5.03,3.04,7.95.54,1.46,1.09,2.99,1.67,4.57.56,1.59,1.14,3.23,1.73,4.92,1.16,3.38,2.36,6.96,3.57,10.67,1.72,5.42,3.53,11.1,5.36,16.85l.88.53c-1.85-6.02-3.69-11.97-5.43-17.63-1.18-3.73-2.34-7.32-3.48-10.72-.58-1.7-1.14-3.34-1.69-4.94-.56-1.59-1.11-3.12-1.64-4.6-1.06-2.94-2.07-5.63-2.98-8-.93-2.37-1.72-4.45-2.41-6.13-.51-1.25-.95-2.31-1.29-3.14,3.1-1.38,6.41-2.91,9.88-4.58.95,1.05,2.58,2.84,4.79,5.28,1.82,2.02,4.07,4.44,6.65,7.23,2.56,2.8,5.51,5.9,8.7,9.31,1.59,1.71,3.29,3.45,5.02,5.27,1.74,1.82,3.53,3.7,5.4,5.61,1.87,1.91,3.79,3.88,5.75,5.89,1.98,1.99,4,4.03,6.06,6.1,2.08,2.05,4.19,4.13,6.33,6.24,2.16,2.08,4.35,4.19,6.55,6.32,2.23,2.1,4.48,4.21,6.74,6.34,2.29,2.09,4.55,4.23,6.89,6.29,4.62,4.18,9.35,8.23,14.06,12.14,4.75,3.87,9.51,7.59,14.31,10.93,4.84,3.31,9.91,5.88,14.78,8.09,4.89,2.19,9.62,4,14.03,5.53,8.83,3.05,16.35,5.04,21.64,6.34,5.29,1.29,8.34,1.87,8.34,1.87,0,0-3.05-.62-8.32-1.98-5.26-1.37-12.76-3.45-21.53-6.6-4.38-1.58-9.08-3.44-13.92-5.68-4.82-2.27-9.82-4.88-14.57-8.22-4.73-3.37-9.43-7.14-14.12-11.06-4.65-3.97-9.32-8.06-13.88-12.28-2.3-2.08-4.53-4.24-6.8-6.36-2.23-2.15-4.45-4.28-6.65-6.41-2.17-2.15-4.33-4.28-6.46-6.39-2.11-2.13-4.19-4.24-6.24-6.31-2.03-2.09-4.02-4.15-5.97-6.16-1.93-2.03-3.83-4.01-5.67-5.95-1.85-1.93-3.61-3.83-5.33-5.67-1.71-1.84-3.38-3.6-4.95-5.33-3.15-3.44-6.05-6.57-8.57-9.4-2.53-2.81-4.75-5.25-6.54-7.3-1.85-2.09-3.29-3.71-4.26-4.8,8.7-4.22,18.3-9.18,28.06-14.39,1.03.93,2.76,2.48,5.07,4.56.49.44,1,.91,1.56,1.39.56.47,1.15.96,1.77,1.47,1.23,1.02,2.56,2.13,3.98,3.31.72.58,1.43,1.22,2.21,1.81.78.6,1.57,1.22,2.39,1.85,1.64,1.26,3.35,2.61,5.16,3.98,1.84,1.32,3.77,2.7,5.75,4.13.5.36,1,.72,1.5,1.08.51.36,1.04.7,1.56,1.05,1.05.7,2.12,1.41,3.2,2.13,1.08.72,2.18,1.45,3.29,2.19,1.13.7,2.28,1.41,3.45,2.13,1.16.72,2.33,1.44,3.52,2.18,1.19.73,2.42,1.4,3.65,2.12,1.23.71,2.47,1.42,3.72,2.13,1.24.73,2.54,1.37,3.83,2.07,1.29.69,2.58,1.38,3.89,2.07,1.3.7,2.65,1.32,3.98,1.99,1.34.66,2.68,1.32,4.02,1.98,1.36.62,2.73,1.25,4.1,1.88,1.37.62,2.74,1.27,4.13,1.86l4.18,1.76c2.77,1.21,5.62,2.25,8.42,3.35,1.4.56,2.82,1.04,4.23,1.55,1.41.5,2.82,1,4.22,1.5,5.65,1.87,11.23,3.65,16.71,5.11,5.46,1.52,10.8,2.75,15.88,3.85,5.09,1.05,9.92,1.94,14.4,2.62,4.48.68,8.6,1.21,12.26,1.57,3.66.38,6.86.61,9.5.76,5.28.3,8.3.22,8.3.22,0,0-3.02.04-8.3-.3-2.63-.17-5.83-.43-9.49-.85-3.66-.39-7.77-.97-12.24-1.68-4.47-.72-9.28-1.65-14.35-2.75-5.06-1.14-10.38-2.42-15.81-3.99-5.45-1.51-11-3.33-16.62-5.26-1.39-.51-2.79-1.02-4.19-1.54-1.4-.52-2.82-1.01-4.2-1.59-2.78-1.13-5.61-2.19-8.36-3.42l-4.15-1.79c-1.38-.61-2.73-1.27-4.09-1.89-1.36-.64-2.71-1.27-4.07-1.91-1.33-.67-2.66-1.34-3.99-2.01-1.32-.68-2.65-1.31-3.94-2.02-1.29-.7-2.58-1.4-3.85-2.1-1.27-.71-2.56-1.36-3.79-2.1-1.24-.73-2.46-1.45-3.68-2.16-1.21-.72-2.44-1.4-3.61-2.14-1.17-.74-2.33-1.48-3.48-2.2-1.15-.73-2.28-1.44-3.41-2.15-1.1-.75-2.19-1.48-3.26-2.21-1.07-.73-2.13-1.45-3.16-2.15-.52-.36-1.04-.7-1.54-1.06-.5-.37-.99-.73-1.49-1.09-1.96-1.44-3.86-2.83-5.68-4.16-1.79-1.38-3.48-2.73-5.1-4-.81-.64-1.59-1.26-2.36-1.86-.77-.6-1.47-1.23-2.17-1.82-1.4-1.19-2.7-2.3-3.91-3.32-.6-.51-1.18-1.01-1.74-1.47-.55-.48-1.05-.96-1.54-1.4-1.96-1.8-3.5-3.21-4.55-4.16,16.99-9.11,34.3-18.9,47.95-26.9,1.01.5,2.35,1.16,3.99,1.96.99.48,2.07,1.04,3.28,1.59,1.21.55,2.52,1.15,3.92,1.79,1.4.63,2.88,1.33,4.46,2.02,1.59.67,3.26,1.37,5,2.1.87.37,1.76.74,2.66,1.12.91.38,1.85.72,2.8,1.09,1.9.73,3.86,1.49,5.88,2.27,2.04.72,4.14,1.46,6.28,2.21.54.19,1.07.38,1.62.57.55.17,1.1.35,1.65.52,1.1.35,2.22.71,3.34,1.06,1.13.35,2.25.74,3.41,1.06,1.15.33,2.31.66,3.48.99,1.17.33,2.34.66,3.53,1,1.19.3,2.39.6,3.59.9,1.2.3,2.41.6,3.62.91,1.22.27,2.44.54,3.67.81,1.23.26,2.45.55,3.68.8l3.71.7c4.95.94,9.93,1.64,14.85,2.24,1.23.15,2.46.25,3.68.37,1.22.11,2.43.26,3.65.33,2.42.15,4.81.35,7.17.41,4.71.23,9.27.16,13.59.04,4.32-.18,8.39-.48,12.14-.91,2.46-.29,4.76-.62,6.92-.97v-.21c-2.16.33-4.48.62-6.95.89-3.74.39-7.82.64-12.12.77-4.31.07-8.86.08-13.55-.2-2.35-.08-4.73-.31-7.14-.49-1.21-.08-2.41-.25-3.63-.37-1.21-.14-2.44-.25-3.66-.41-4.89-.65-9.85-1.4-14.77-2.4l-3.68-.74c-1.23-.25-2.44-.56-3.66-.83-1.22-.28-2.43-.56-3.64-.85-1.2-.32-2.4-.63-3.59-.95-1.19-.32-2.38-.63-3.56-.94-1.17-.35-2.34-.69-3.5-1.03-1.16-.35-2.31-.69-3.45-1.03-1.15-.33-2.26-.74-3.38-1.09-1.11-.37-2.22-.74-3.32-1.1-.55-.18-1.09-.36-1.64-.54-.54-.2-1.07-.39-1.6-.58-2.12-.77-4.2-1.53-6.22-2.27-2-.8-3.95-1.57-5.83-2.32-.94-.38-1.87-.73-2.77-1.12-.9-.39-1.78-.77-2.64-1.15-1.72-.75-3.38-1.47-4.95-2.15-1.56-.71-3.02-1.41-4.4-2.05-1.38-.65-2.67-1.25-3.87-1.82-1.19-.56-2.27-1.14-3.25-1.62-1.11-.56-2.08-1.05-2.91-1.47,6.5-3.83,12.09-7.19,16.28-9.81,7.9-4.93,20.19-12.67,34.48-21.64.75.33,1.72.76,2.88,1.28,1.5.66,3.4,1.33,5.54,2.17,1.07.41,2.24.75,3.46,1.17,1.22.4,2.5.85,3.86,1.19,1.36.37,2.77.78,4.24,1.15,1.48.34,3.01.68,4.59,1.04,1.58.32,3.22.59,4.88.89,1.67.29,3.39.48,5.13.73,1.74.23,3.53.35,5.33.53,1.8.14,3.63.21,5.48.32,1.84.03,3.7.07,5.57.08.93-.02,1.87-.04,2.8-.06.94-.02,1.87-.03,2.81-.1,1.87-.11,3.74-.18,5.6-.37.93-.08,1.86-.17,2.78-.25.92-.11,1.84-.22,2.75-.33,1.83-.19,3.63-.51,5.42-.76,1.78-.3,3.54-.6,5.26-.93,1.54-.32,3.06-.62,4.54-.96v-.52c-1.52.33-3.07.61-4.65.91-1.72.3-3.47.58-5.25.85-1.78.22-3.58.51-5.41.67-.91.09-1.83.19-2.74.28-.92.07-1.84.14-2.77.2-1.85.16-3.71.21-5.57.28-.93.05-1.86.05-2.79.05-.93,0-1.86,0-2.78.01-1.85-.03-3.7-.1-5.52-.16-1.82-.14-3.64-.23-5.42-.4-1.78-.21-3.55-.35-5.27-.61-1.72-.27-3.42-.48-5.06-.8-1.64-.33-3.26-.62-4.81-.96-1.55-.38-3.06-.74-4.51-1.1-1.45-.39-2.83-.82-4.17-1.2-1.34-.36-2.59-.83-3.79-1.24-1.19-.43-2.34-.78-3.39-1.2-2.08-.86-3.91-1.54-5.4-2.21-.66-.3-1.25-.58-1.77-.82,24.57-15.42,54.63-34.2,78.43-48.62.9-.54,1.77-1.09,2.65-1.63v-3.75c-23.47,14.06-76.03,45.39-107.62,64.06,0-.73,0-1.58,0-2.58Z"/><path class="cls-5" d="m1054.87,393.47c-5.2,29.02-4.4,44.31,15.34,54.13,19.74,9.83,38.9,17.53,47.71,17.97,8.82.43,12.56-4.9,10.63-7.19-1.93-2.29-1.13.88-6.97-1.56-5.83-2.44-28.7-11.81-28.34-13.3.36-1.49,8.02,1.35,16.01,4.24,7.99,2.89,21.55,3.57,34.23,5.86,12.68,2.28,23.44,4.84,36.83-6.61,13.39-11.44,23.44-28.94,25.51-34.48,2.06-5.54,4.31-19.24.53-17.67-3.78,1.57-22.53,8.24-42.75,7.57-20.21-.68-39.27-1.04-48.95-4.13-9.67-3.1-14.62-5.77-12.38-7.36,2.25-1.59,48.23,4.38,70.15-1.72,21.92-6.1,46.83-19.67,49.02-35.6,2.18-15.93-1.41-34.8-11.17-34.5-9.76.3-33.67,14-45.51,17.28-11.84,3.28-36.29,11.79-43.97,13.21-7.68,1.42-20.05,2.07-18.83-2.21,1.22-4.28,37.5-10.62,54.22-20.1,16.72-9.49,40.11-29.9,46.41-36.61,6.31-6.71,13.42-9.05,9.54-25.58-3.88-16.53-16.96-31.82-16.96-31.82,0,0,2.89,5.48-6.34,19.16-9.23,13.67-26.93,34.98-32.23,39.09-5.29,4.11-12.33,8.51-11.91,5.15s22.04-16.49,31.52-42.93c9.48-26.44,9.67-46.88,6.54-39.6-3.14,7.28-4.88,26.51-13.46,37.7-8.58,11.2-23.87,20.18-31.16,22.5-7.29,2.32-19.68,7.24-12.89,2.13,6.79-5.11,37.96-25.06,50.2-42.28,12.24-17.22,21.9-39.71,21.03-46.3-.87-6.59-6.1-20.56-9.33-24.72-3.23-4.16-15.1-14.19-15.1-14.19,0,0,12.48,7.89-6.83,39.22-19.31,31.34-32.71,40.22-36.07,42.53-3.36,2.3-12.88,8.78-12.75,3.68.13-5.1,10.67-23.73,18.33-35.72,7.66-12,19.51-20.74,25.03-37.44,5.52-16.7,3.45-19.18,1.54-21.64-1.91-2.46-18.02-11.31-21.45-17.89-3.43-6.57-7.98-12.44-17.24-12.07-9.26.37-30.62-.63-31.72,1.28-1.09,1.91-5.25,33.45-4.45,47.37s2.56,32.39-4.95,33.83c-7.52,1.44-15.37-13.37-17.37-25.9-2-12.53-1.77-29.22,3.72-41.66,5.49-12.44,19.04-15.68,19.04-15.68,0,0-15.57-2.31-29.58,3.26-14.01,5.57-15,6.64-15,6.64,0,0-12.18,22.17-10.43,46.1,1.75,23.93,9.7,48.82,16.38,60.75,6.68,11.93,16.74,28.21,9.24,30.85-7.5,2.64-19.62-20.22-20.62-27.17-1-6.95-4.56-31.45-7.25-42.54-2.69-11.09-5.82-28.2-6.14-40.52-.32-12.32.85-24.29,3.52-27.87,2.67-3.59,10.61-8.38,10.61-8.38,0,0-33.71,15.7-46.46,26.2-12.75,10.5-13.95,7.79-15.6,22.25-1.65,14.46-4.41,28.95,4.27,48.3,8.68,19.35,28.17,59.5,39.07,73.16,10.9,13.66,23.14,27.51,12.25,28.6-10.88,1.08-20.18-.94-55.94-43.33-35.76-42.38-50.43-62.66-50.43-62.66,0,0-13.62,13.29-17.92,31.17-4.3,17.88-9.9,27.06-1.01,39.1,8.88,12.04,29.18,33.71,63.18,52.16,34,18.45,52.99,26.14,41.28,27.05-11.71.91-39.88-4.35-66.74-26.68-26.86-22.33-26.69-23.67-33.88-30.21-7.19-6.54-12.8-22.94-12.8-22.94,0,0-10.65,22.2-7.39,51.78,3.26,29.58,6.21,37.29,27.57,46.47,21.36,9.18,40.67,8.89,56.45,10.88,15.78,1.99,27.83,5.22,23.84,8.47-3.99,3.25-29.91,6.61-53.95,5.81-32.57-1.09-52.07-22.61-52.07-22.61,0,0-3.4,30.96,11.26,44.58,14.66,13.62,34.16,18.58,50.3,27.22,16.14,8.63,45.96,16.95,63.47,8.01,17.5-8.93,24.3-19.68,26.74-30.11,2.44-10.44,3.66-30.92,7.37-30.63,3.71.3,4.43,1.41,4.43,1.41Z"/><path class="cls-3" d="m1049.25,376.49s-2.3-.26-6.33-.73c-2.02-.21-4.44-.57-7.23-.95-1.39-.21-2.88-.37-4.44-.65-1.56-.26-3.2-.52-4.91-.8-1.71-.26-3.49-.61-5.32-.96-.92-.17-1.85-.35-2.8-.53-.95-.17-1.91-.36-2.88-.58-1.94-.41-3.94-.84-5.98-1.28-2.03-.48-4.1-.97-6.21-1.48-4.2-1.05-8.54-2.2-12.9-3.49-4.37-1.28-8.77-2.7-13.15-4.2-2.19-.75-4.35-1.57-6.52-2.35-2.14-.84-4.3-1.65-6.4-2.51-2.1-.88-4.2-1.71-6.24-2.63-1.02-.45-2.04-.9-3.05-1.34-1-.46-1.99-.93-2.97-1.38-1.98-.9-3.87-1.87-5.75-2.78-1.86-.95-3.68-1.87-5.43-2.82-3.51-1.87-6.76-3.76-9.74-5.55-2.96-1.82-5.64-3.54-7.97-5.13-2.33-1.6-4.32-3.03-5.93-4.26-3.23-2.45-4.94-4.02-4.94-4.02,0,0,1.69,1.59,4.89,4.07,1.6,1.25,3.58,2.71,5.89,4.33,2.32,1.62,4.98,3.37,7.92,5.21,2.96,1.82,6.2,3.75,9.7,5.65,1.74.97,3.56,1.91,5.41,2.88,1.87.93,3.76,1.93,5.73,2.84.98.47,1.97.94,2.97,1.42,1.01.45,2.02.91,3.04,1.37,2.03.94,4.13,1.8,6.22,2.7,2.1.89,4.25,1.72,6.39,2.58,2.17.8,4.33,1.64,6.51,2.42,4.37,1.55,8.77,3.02,13.14,4.35,4.37,1.34,8.7,2.54,12.91,3.63,2.11.52,4.19,1.04,6.22,1.55,2.04.46,4.04.91,5.99,1.34.97.23,1.93.42,2.89.61.95.19,1.89.38,2.81.56,1.84.37,3.62.73,5.33,1.01,1.71.3,3.36.59,4.92.86,1.56.29,3.06.47,4.45.7,2.8.42,5.24.8,7.25,1.03,4,.5,6.29.79,6.32.79-.42,3.72-.22,8.43-.01,11.49-.77.35-2.58,1.16-5.22,2.35-1.79.84-4.01,1.7-6.53,2.75-.63.26-1.28.53-1.96.81-.67.28-1.38.52-2.09.8-1.44.54-2.95,1.11-4.52,1.7-1.58.59-3.25,1.12-4.96,1.72-.86.29-1.73.59-2.62.89-.9.28-1.8.56-2.73.84-3.68,1.17-7.6,2.26-11.68,3.33-2.05.49-4.12,1.02-6.24,1.51-2.12.45-4.26.93-6.43,1.36-2.18.39-4.36.83-6.57,1.19-1.11.17-2.21.34-3.32.52l-1.66.26-1.67.22c-2.23.28-4.46.59-6.69.79-1.11.11-2.22.23-3.33.34-1.11.08-2.22.17-3.32.25-4.41.34-8.77.49-12.98.56-2.11,0-4.18.03-6.21-.03-1.01-.02-2.02-.05-3.01-.07-.99-.04-1.97-.09-2.93-.13-.97-.03-1.92-.1-2.85-.16-.94-.06-1.86-.13-2.77-.19-1.81-.16-3.56-.29-5.24-.49-3.36-.34-6.42-.79-9.12-1.22-2.71-.43-5.05-.9-6.98-1.31-3.85-.83-6-1.49-6-1.49,0,0,2.15.68,5.99,1.54,1.92.42,4.26.91,6.97,1.36,2.71.45,5.77.91,9.12,1.28,1.68.21,3.43.35,5.24.53.91.07,1.83.14,2.77.21.94.07,1.89.14,2.85.18.97.05,1.95.1,2.94.15.99.03,2,.06,3.01.09,2.03.08,4.11.05,6.22.08,4.22-.04,8.58-.16,13.01-.47,1.11-.08,2.22-.15,3.33-.23,1.11-.1,2.23-.21,3.34-.31,2.24-.18,4.47-.48,6.71-.75l1.68-.21,1.67-.25c1.11-.17,2.22-.33,3.33-.5,2.22-.34,4.41-.77,6.6-1.14,2.18-.42,4.33-.88,6.46-1.32,2.12-.47,4.21-.99,6.26-1.47,4.09-1.05,8.04-2.11,11.74-3.26.93-.28,1.84-.56,2.74-.83.89-.3,1.77-.59,2.64-.88,1.72-.59,3.41-1.11,4.99-1.69,1.59-.58,3.11-1.14,4.55-1.68.72-.27,1.43-.52,2.11-.79.68-.27,1.34-.54,1.97-.8,2.54-1.04,4.79-1.89,6.58-2.72,2.33-1.03,4-1.77,4.9-2.16.1,1.28.19,2.09.19,2.09l5.55.81c.02-.13.05-.27.07-.4.35.51.76,1.12,1.24,1.83,1.55,2.31,3.72,5.63,6.25,9.67,2.54,4.03,5.42,8.8,8.56,13.87,3.14,5.07,6.55,10.46,10.41,15.54,1.94,2.53,3.97,5,6.16,7.25,2.17,2.26,4.48,4.34,6.88,6.13,2.39,1.8,4.88,3.29,7.3,4.57,2.43,1.26,4.82,2.28,7.06,3.1,4.49,1.64,8.39,2.5,11.13,2.97,2.75.47,4.34.55,4.34.55,0,0-1.59-.1-4.33-.59-2.73-.5-6.62-1.4-11.09-3.07-2.23-.84-4.6-1.88-7.01-3.16-2.4-1.29-4.86-2.8-7.21-4.61-2.37-1.8-4.64-3.88-6.78-6.15-2.15-2.26-4.15-4.73-6.05-7.27-3.78-5.1-7.13-10.51-10.22-15.6-3.08-5.1-5.92-9.89-8.42-13.96-2.49-4.07-4.64-7.42-6.17-9.76-.76-1.17-1.37-2.08-1.79-2.69.28-1.51.56-3.03.85-4.55.9.51,2.75,1.54,5.37,3.01,1.91,1.06,4.24,2.35,6.91,3.83,2.66,1.48,5.7,3.12,9,4.9,1.65.9,3.38,1.8,5.17,2.75,1.79.95,3.64,1.93,5.55,2.9,3.82,1.98,7.88,4.02,12.11,6.06,2.12,1.01,4.27,2.06,6.48,3.04,1.1.5,2.21,1,3.32,1.51,1.12.48,2.25.96,3.39,1.45,2.26.99,4.59,1.87,6.9,2.8,1.17.45,2.35.86,3.52,1.29l1.77.64,1.79.58c1.2.37,2.38.8,3.59,1.13,1.21.34,2.41.68,3.61,1.02,1.22.29,2.43.58,3.64.87l.91.21.91.17c.61.11,1.22.23,1.82.34,4.87.87,9.72,1.28,14.42,1.36,4.7.07,9.25-.25,13.51-.92,4.26-.68,8.21-1.76,11.73-3.05,3.53-1.29,6.62-2.87,9.22-4.46,2.61-1.59,4.7-3.24,6.35-4.69,1.64-1.46,2.8-2.73,3.55-3.63.75-.9,1.09-1.43,1.09-1.43,0,0-.35.52-1.1,1.42-.76.89-1.93,2.15-3.58,3.59-1.65,1.43-3.76,3.06-6.38,4.62-2.61,1.56-5.7,3.1-9.23,4.35-3.52,1.26-7.46,2.3-11.7,2.93-4.24.63-8.77.91-13.44.79-4.67-.12-9.5-.58-14.32-1.49-.6-.12-1.2-.24-1.81-.36l-.91-.18-.9-.22c-1.2-.3-2.4-.6-3.61-.9-1.19-.35-2.39-.7-3.58-1.05-1.2-.34-2.37-.78-3.56-1.16l-1.77-.59-1.75-.65c-1.17-.44-2.34-.86-3.49-1.31-2.3-.95-4.61-1.84-6.85-2.85-1.12-.49-2.25-.99-3.36-1.47-1.1-.51-2.2-1.02-3.3-1.53-2.19-1-4.32-2.06-6.43-3.09-4.2-2.07-8.23-4.14-12.02-6.16-1.9-.99-3.74-1.99-5.52-2.95-1.77-.97-3.5-1.88-5.13-2.8-3.28-1.82-6.29-3.47-8.94-4.98-2.65-1.5-4.96-2.81-6.86-3.89-3.18-1.82-5.21-2.98-5.79-3.32,1.1-5.75,2.27-11.56,3.49-17.35v.05s2.53.31,6.97.85c2.22.26,4.91.64,8.03.9,1.56.15,3.21.31,4.96.48,1.74.17,3.58.36,5.5.47,1.92.13,3.91.27,5.98.41,1.03.06,2.08.16,3.15.2,1.07.04,2.15.09,3.25.13,2.2.08,4.46.17,6.77.26,2.31.02,4.67.05,7.08.07,2.4.06,4.84-.05,7.31-.09,1.24-.03,2.48-.05,3.73-.08,1.25-.07,2.5-.13,3.76-.2,2.52-.14,5.06-.24,7.6-.51,2.54-.24,5.1-.41,7.64-.77,2.54-.33,5.09-.6,7.6-1.06,1.26-.21,2.52-.41,3.77-.62,1.25-.21,2.49-.49,3.73-.74,1.23-.26,2.47-.49,3.69-.77,1.21-.3,2.42-.6,3.62-.9.6-.15,1.2-.3,1.79-.44.59-.15,1.18-.34,1.77-.5,1.17-.34,2.33-.68,3.49-1.02,4.57-1.48,8.96-3.03,12.95-4.88.5-.22,1-.45,1.5-.67.49-.23.97-.48,1.45-.72.95-.48,1.9-.94,2.82-1.42,1.81-1.02,3.57-1.97,5.17-3.02,3.25-2.05,6.09-4.15,8.43-6.22,2.35-2.05,4.24-4.02,5.67-5.74,1.44-1.72,2.42-3.19,3.04-4.21.62-1.03.88-1.61.88-1.61,0,0-.27.58-.9,1.6-.64,1.01-1.63,2.47-3.09,4.16-1.46,1.69-3.36,3.63-5.73,5.65-2.35,2.04-5.21,4.09-8.47,6.09-1.61,1.03-3.38,1.96-5.19,2.95-.92.47-1.87.91-2.83,1.38-.48.23-.96.48-1.45.69-.5.21-1,.43-1.5.64-4,1.8-8.39,3.29-12.95,4.7-1.15.32-2.31.64-3.48.97-.59.16-1.17.34-1.76.48-.6.14-1.19.28-1.79.42-1.2.28-2.4.56-3.61.85-1.22.26-2.45.48-3.68.72-1.23.23-2.47.5-3.72.69-1.25.19-2.5.38-3.76.57-2.51.42-5.05.66-7.58.96-2.53.33-5.08.46-7.61.67-2.53.23-5.06.3-7.57.41-1.25.05-2.5.1-3.75.15-1.24.01-2.48.02-3.71.03-2.46,0-4.89.09-7.28,0-2.39-.05-4.74-.11-7.04-.16-2.3-.12-4.55-.23-6.74-.34-1.09-.06-2.17-.11-3.24-.17-1.06-.06-2.11-.16-3.14-.24-2.06-.17-4.04-.33-5.95-.48-1.91-.13-3.73-.35-5.46-.54-1.73-.19-3.37-.37-4.92-.53-3.09-.3-5.78-.71-8-1-3.8-.51-6.2-.84-6.81-.92,2.47-11.66,5.09-23.18,7.69-33.85,1.15-.1,2.69-.24,4.57-.41,2.22-.15,4.93-.55,8.03-.96.78-.1,1.58-.21,2.4-.32.41-.06.83-.1,1.25-.17.42-.07.85-.15,1.28-.23,1.73-.3,3.54-.62,5.43-.96,1.9-.3,3.84-.78,5.87-1.22,2.02-.46,4.12-.87,6.24-1.48,2.12-.58,4.32-1.13,6.54-1.78,2.2-.7,4.46-1.41,6.75-2.13,2.26-.82,4.55-1.65,6.87-2.5,2.3-.91,4.6-1.89,6.93-2.85,2.29-1.05,4.6-2.12,6.9-3.22,1.13-.59,2.27-1.17,3.4-1.76,1.13-.6,2.29-1.15,3.39-1.81l3.33-1.91c.55-.32,1.12-.62,1.66-.96l1.62-1.02c1.08-.68,2.16-1.35,3.23-2.03,1.06-.7,2.09-1.43,3.14-2.13,2.1-1.39,4.08-2.92,6.07-4.38l.74-.55.72-.58c.48-.38.95-.77,1.43-1.15.94-.77,1.91-1.5,2.81-2.29,1.81-1.57,3.62-3.09,5.29-4.68.84-.79,1.7-1.55,2.49-2.34.8-.79,1.59-1.58,2.37-2.35,3.07-3.14,5.88-6.21,8.3-9.18,1.25-1.46,2.35-2.93,3.43-4.3,1.03-1.41,2.05-2.72,2.92-4.01,1.81-2.54,3.25-4.84,4.41-6.75,1.16-1.91,1.99-3.46,2.55-4.52.55-1.06.82-1.64.82-1.64,0,0-.27.58-.83,1.64-.57,1.05-1.41,2.59-2.59,4.49-1.18,1.9-2.64,4.18-4.47,6.7-.89,1.28-1.91,2.58-2.96,3.98-1.1,1.36-2.21,2.81-3.47,4.26-2.45,2.94-5.28,5.98-8.37,9.09-.78.77-1.58,1.54-2.38,2.33-.8.79-1.66,1.53-2.51,2.32-1.68,1.58-3.5,3.07-5.31,4.62-.91.78-1.88,1.5-2.82,2.26-.48.38-.96.75-1.44,1.13l-.72.57-.74.54c-1.99,1.44-3.98,2.95-6.09,4.31-1.04.7-2.08,1.41-3.14,2.1-1.08.66-2.16,1.32-3.24,1.99l-1.62,1c-.54.34-1.11.63-1.66.94l-3.33,1.87c-1.1.64-2.26,1.19-3.39,1.77-1.13.57-2.27,1.15-3.4,1.72-2.3,1.07-4.6,2.11-6.89,3.13-2.33.93-4.63,1.88-6.92,2.77-2.32.82-4.61,1.63-6.86,2.42-2.28.7-4.53,1.38-6.73,2.05-2.21.63-4.4,1.15-6.51,1.71-2.11.59-4.21.97-6.22,1.41-2.02.41-3.95.88-5.84,1.16-1.88.31-3.69.62-5.4.9-.43.07-.85.14-1.27.21-.42.06-.83.11-1.24.16-.82.1-1.61.2-2.38.29-3.08.37-5.75.75-7.98.88-1.62.13-2.99.24-4.08.33,2.13-8.71,4.23-16.82,6.19-23.93.15-.54.3-1.12.46-1.7.74-.14,1.73-.32,2.96-.58,1.42-.28,3.13-.64,5.08-1.08,1.96-.44,4.16-.96,6.55-1.58,2.39-.62,4.97-1.31,7.68-2.12,2.71-.8,5.55-1.7,8.47-2.7,5.84-1.99,11.97-4.38,17.97-7.08,6-2.69,11.85-5.7,17.19-8.77,5.34-3.08,10.15-6.23,14.15-9.11,3.99-2.88,7.17-5.5,9.29-7.43,1.06-.97,1.87-1.76,2.39-2.32.53-.56.75-.92.71-.93.04.02-.19.37-.72.92-.53.56-1.34,1.34-2.42,2.29-2.15,1.9-5.36,4.46-9.39,7.28-4.03,2.82-8.88,5.9-14.25,8.89-5.37,2.99-11.25,5.9-17.26,8.5-6.01,2.6-12.15,4.9-17.99,6.79-2.92.95-5.76,1.8-8.47,2.56-2.71.77-5.28,1.42-7.67,2-2.39.57-4.58,1.07-6.53,1.47-1.95.41-3.66.75-5.06,1-.87.17-1.63.3-2.27.41,1.78-6.76,3.97-15.79,6.41-25.84,1.05-.4,2.53-.97,4.39-1.69,1.99-.71,4.34-1.79,7.05-2.96,2.74-1.12,5.7-2.65,8.97-4.23.41-.2.82-.4,1.24-.61.41-.21.82-.44,1.24-.67.83-.45,1.67-.92,2.53-1.38,1.72-.94,3.51-1.89,5.27-3,.89-.54,1.79-1.09,2.71-1.64.91-.56,1.85-1.09,2.75-1.72,1.81-1.22,3.68-2.45,5.55-3.74,1.83-1.35,3.68-2.72,5.56-4.11,1.81-1.47,3.67-2.94,5.5-4.46.89-.79,1.79-1.58,2.69-2.38l1.35-1.19.68-.6.65-.63c.87-.84,1.74-1.68,2.61-2.51l1.31-1.26,1.26-1.31,2.51-2.63.62-.66.6-.68,1.19-1.36c.79-.91,1.6-1.8,2.37-2.72.75-.93,1.51-1.86,2.25-2.79.37-.46.75-.93,1.12-1.39.36-.48.71-.95,1.06-1.42.71-.95,1.41-1.89,2.11-2.82.68-.95,1.33-1.91,1.98-2.86.65-.95,1.31-1.88,1.91-2.85.61-.96,1.21-1.91,1.81-2.85.6-.94,1.13-1.91,1.69-2.84,1.13-1.87,2.11-3.77,3.11-5.59,1.9-3.7,3.61-7.24,4.99-10.6.18-.42.35-.83.53-1.24.16-.41.32-.82.48-1.23.31-.81.62-1.6.92-2.37.56-1.56,1.11-3.02,1.55-4.43.94-2.79,1.63-5.27,2.16-7.32.54-2.05.87-3.68,1.09-4.79.21-1.11.3-1.71.3-1.71,0,0-.09.6-.31,1.71-.23,1.11-.57,2.74-1.12,4.78-.54,2.04-1.25,4.51-2.21,7.3-.45,1.4-1.02,2.86-1.58,4.41-.3.77-.62,1.56-.94,2.36-.16.4-.32.81-.49,1.22-.18.41-.35.82-.53,1.23-1.39,3.34-3.13,6.87-5.05,10.55-1.01,1.81-2,3.7-3.14,5.56-.56.93-1.1,1.89-1.71,2.83-.6.93-1.21,1.88-1.82,2.83-.6.96-1.27,1.89-1.92,2.83-.66.94-1.31,1.9-2,2.84-.7.93-1.41,1.86-2.12,2.8-.36.47-.71.94-1.07,1.41-.37.46-.75.92-1.13,1.38-.75.92-1.51,1.84-2.27,2.77-.77.91-1.59,1.8-2.38,2.7l-1.2,1.35-.6.68-.63.65-2.51,2.6-1.26,1.3-1.31,1.25c-.87.83-1.75,1.66-2.62,2.49l-.65.62-.68.59-1.35,1.18c-.9.79-1.8,1.57-2.69,2.35-1.84,1.5-3.69,2.96-5.51,4.41-1.88,1.37-3.74,2.72-5.57,4.05-1.87,1.27-3.74,2.48-5.55,3.68-.9.62-1.84,1.14-2.75,1.7-.91.55-1.81,1.08-2.7,1.62-1.76,1.1-3.55,2.03-5.27,2.95-.86.46-1.7.92-2.53,1.36-.42.22-.82.45-1.23.66-.42.2-.83.4-1.23.59-3.26,1.56-6.23,3.06-8.95,4.15-2.7,1.14-5.03,2.2-7.03,2.9-1.51.57-2.77,1.04-3.76,1.42,6.5-26.83,14.67-60.42,21.36-77.24,9.75-24.53,15.84-57.87,18.59-63.49,2.76-5.62,5.15-21.87,5.15-21.87,0,0-13.24,49.5-16.59,59.82-3.3,10.16-20.56,57.59-25.56,77.61-.64-.83-1.58-2.04-2.77-3.57-.59-.78-1.3-1.62-1.96-2.59-.68-.96-1.42-2-2.21-3.11-.39-.56-.8-1.13-1.22-1.72-.42-.59-.85-1.19-1.26-1.84-.83-1.28-1.71-2.63-2.62-4.04-.45-.71-.94-1.41-1.38-2.17-.44-.75-.89-1.52-1.35-2.3-.46-.78-.93-1.57-1.4-2.38-.24-.4-.47-.81-.72-1.22-.23-.41-.45-.84-.68-1.26-.9-1.7-1.83-3.44-2.77-5.23-.87-1.82-1.75-3.69-2.65-5.58-.23-.47-.45-.95-.64-1.44-.21-.49-.41-.98-.62-1.47-.41-.98-.83-1.97-1.25-2.97-.44-.99-.79-2.02-1.17-3.04-.38-1.02-.76-2.05-1.14-3.09-.41-1.02-.7-2.09-1.05-3.14-.34-1.06-.68-2.12-1.02-3.18-.33-1.07-.6-2.15-.9-3.22-.29-1.08-.61-2.16-.88-3.24-1.03-4.36-1.96-8.74-2.55-13.11-.15-1.09-.33-2.18-.45-3.26-.11-1.09-.22-2.17-.33-3.24-.05-.54-.12-1.07-.16-1.61-.03-.54-.07-1.07-.1-1.6-.07-1.06-.13-2.12-.19-3.17-.03-1.05-.05-2.09-.07-3.12-.01-.52-.02-1.03-.03-1.54,0-.51.01-1.02.02-1.52.01-1.01.03-2.01.04-3,.05-.99.1-1.96.14-2.92.03-.96.11-1.91.2-2.84.08-.93.14-1.85.24-2.75.22-1.8.39-3.54.67-5.2.48-3.33,1.1-6.35,1.73-9.01.61-2.66,1.29-4.95,1.88-6.82,1.19-3.74,2.13-5.78,2.13-5.78,0,0-.96,2.04-2.17,5.77-.6,1.87-1.29,4.15-1.93,6.81-.64,2.66-1.29,5.68-1.79,9.01-.28,1.66-.48,3.4-.7,5.2-.1.9-.17,1.82-.26,2.75-.09.93-.17,1.88-.22,2.85-.05.96-.11,1.94-.16,2.93-.02.99-.04,1.99-.06,3-.01.51-.02,1.02-.03,1.53,0,.51.02,1.03.02,1.54.02,1.03.03,2.08.05,3.13.06,1.05.11,2.11.17,3.18.03.53.06,1.07.09,1.61.04.54.1,1.07.14,1.61.1,1.08.2,2.16.31,3.25.11,1.09.29,2.18.43,3.27.56,4.39,1.47,8.79,2.47,13.17.26,1.09.57,2.17.85,3.26.3,1.08.56,2.17.89,3.24.34,1.07.67,2.13,1,3.2.35,1.06.64,2.13,1.04,3.17.38,1.04.75,2.08,1.13,3.11.38,1.03.72,2.06,1.16,3.06.41,1,.83,2,1.24,2.99.2.49.41.99.61,1.48.2.49.41.98.64,1.45.89,1.91,1.77,3.79,2.63,5.63.94,1.8,1.85,3.56,2.75,5.27.23.43.44.86.67,1.27.24.41.48.82.71,1.23.47.81.93,1.61,1.39,2.4.45.79.9,1.56,1.34,2.32.43.76.92,1.47,1.37,2.19.91,1.42,1.78,2.78,2.6,4.08.4.65.83,1.27,1.25,1.86.42.6.82,1.18,1.22,1.74.79,1.12,1.52,2.18,2.2,3.15.66.99,1.36,1.82,1.95,2.61,1.53,2,2.64,3.45,3.23,4.23-2.7,11.12-8.79,30.96-14.38,49.32-.91-.82-2.25-2.03-3.97-3.58-.84-.77-1.8-1.59-2.79-2.54-.98-.95-2.04-1.99-3.17-3.09-1.13-1.11-2.33-2.28-3.6-3.52-1.22-1.29-2.5-2.64-3.84-4.06-.67-.71-1.35-1.43-2.05-2.17-.7-.73-1.36-1.53-2.05-2.32-1.38-1.58-2.81-3.22-4.28-4.9-1.4-1.74-2.83-3.53-4.3-5.36-.37-.46-.74-.92-1.11-1.38-.35-.48-.7-.96-1.06-1.44-.71-.96-1.42-1.94-2.14-2.92-.36-.49-.72-.98-1.09-1.48-.37-.49-.73-.99-1.07-1.51-.69-1.03-1.38-2.06-2.08-3.1-.69-1.05-1.42-2.08-2.09-3.15-.66-1.08-1.32-2.17-1.99-3.26-.66-1.1-1.36-2.17-1.98-3.3-.62-1.13-1.25-2.26-1.87-3.39-1.29-2.24-2.41-4.59-3.57-6.91l-.87-1.75-.79-1.78c-.53-1.19-1.05-2.37-1.58-3.55-.27-.59-.51-1.19-.74-1.79l-.71-1.8c-.46-1.2-.96-2.39-1.39-3.59-.42-1.21-.84-2.41-1.25-3.61-.2-.6-.42-1.19-.61-1.79-.18-.6-.36-1.21-.54-1.81-.36-1.2-.72-2.4-1.07-3.58-.31-1.2-.61-2.39-.91-3.57-.15-.59-.3-1.18-.45-1.76-.13-.59-.25-1.18-.38-1.76-.25-1.17-.5-2.33-.74-3.48-.2-1.16-.4-2.3-.59-3.43-.1-.57-.19-1.13-.29-1.69-.07-.56-.15-1.12-.22-1.67-.65-4.42-.93-8.65-1.1-12.54-.15-3.9-.04-7.48.12-10.65.2-3.17.52-5.92.84-8.17.34-2.25.7-4.01.96-5.2.28-1.19.46-1.81.46-1.81,0,0-.19.62-.48,1.81-.28,1.19-.65,2.94-1.01,5.19-.34,2.25-.69,5-.91,8.17-.2,3.17-.34,6.75-.22,10.66.13,3.91.37,8.14.99,12.58.07.56.14,1.12.21,1.68.09.56.18,1.12.27,1.69.19,1.14.37,2.28.56,3.45.23,1.15.47,2.32.71,3.5.12.59.24,1.18.37,1.77.15.59.29,1.18.44,1.77.29,1.19.59,2.39.89,3.59.35,1.19.69,2.39,1.04,3.6.18.61.35,1.21.53,1.82.19.6.4,1.2.6,1.81.4,1.21.81,2.42,1.22,3.64.42,1.22.91,2.41,1.36,3.62l.7,1.81c.23.61.46,1.21.73,1.8.52,1.19,1.03,2.39,1.55,3.59l.78,1.8.85,1.76c1.14,2.35,2.25,4.71,3.53,6.98.62,1.14,1.24,2.29,1.85,3.42.62,1.14,1.31,2.23,1.96,3.33.66,1.1,1.32,2.2,1.97,3.3.67,1.09,1.39,2.13,2.07,3.19.69,1.05,1.38,2.1,2.06,3.14.33.53.69,1.03,1.06,1.53.36.5.72,1,1.08,1.5.72.99,1.42,1.98,2.13,2.95.35.49.7.97,1.05,1.46.37.47.73.93,1.1,1.4,1.46,1.85,2.88,3.66,4.27,5.43,1.46,1.7,2.88,3.36,4.25,4.97.7.79,1.34,1.61,2.04,2.35.69.75,1.37,1.48,2.04,2.2,1.33,1.43,2.61,2.81,3.83,4.12,1.27,1.26,2.47,2.46,3.6,3.58,1.13,1.12,2.19,2.17,3.17,3.15.98.97,1.93,1.79,2.77,2.57,2.08,1.91,3.61,3.31,4.47,4.1-4.1,13.48-7.87,25.98-9.73,33.4-1.09,4.36-2.25,8.63-3.4,12.69-.99-.45-2.26-1.02-3.78-1.71-2.01-.89-4.38-2.06-7.13-3.36-2.75-1.29-5.81-2.87-9.15-4.55-1.68-.83-3.39-1.78-5.18-2.72-1.78-.95-3.64-1.91-5.5-2.98-1.87-1.05-3.81-2.11-5.76-3.23-1.95-1.14-3.93-2.3-5.96-3.49-2-1.22-4.03-2.47-6.09-3.72-2.05-1.27-4.09-2.61-6.17-3.93-2.06-1.34-4.11-2.74-6.19-4.11-2.05-1.42-4.1-2.84-6.16-4.27-2.02-1.47-4.06-2.92-6.06-4.4-1.98-1.51-3.99-2.96-5.92-4.5-.97-.76-1.94-1.51-2.9-2.26-.96-.75-1.9-1.53-2.84-2.28-1.89-1.51-3.71-3.05-5.5-4.55-1.8-1.51-3.52-3.04-5.23-4.52-1.67-1.52-3.34-2.97-4.9-4.45-3.17-2.91-6.07-5.76-8.72-8.42-2.64-2.67-5-5.17-7.06-7.43-2.05-2.26-3.79-4.27-5.2-5.95-2.81-3.36-4.27-5.4-4.27-5.4,0,0,1.43,2.06,4.19,5.47,1.38,1.7,3.1,3.74,5.11,6.04,2.02,2.29,4.35,4.83,6.95,7.55,2.62,2.7,5.47,5.61,8.6,8.57,1.54,1.5,3.19,2.99,4.84,4.53,1.68,1.51,3.39,3.07,5.17,4.61,1.78,1.54,3.58,3.11,5.44,4.65.93.77,1.86,1.57,2.81,2.33.95.77,1.91,1.54,2.87,2.32,1.91,1.57,3.9,3.06,5.87,4.6,1.98,1.52,4.01,3.01,6.01,4.52,2.04,1.46,4.08,2.92,6.11,4.38,2.06,1.41,4.1,2.85,6.15,4.23,2.06,1.36,4.09,2.73,6.13,4.04,2.05,1.3,4.07,2.58,6.06,3.83,2.01,1.22,3.99,2.42,5.93,3.6,1.95,1.16,3.87,2.25,5.74,3.34,1.86,1.1,3.71,2.09,5.48,3.08,1.78.97,3.48,1.95,5.16,2.81,3.34,1.75,6.38,3.38,9.14,4.73,2.74,1.36,5.13,2.59,7.12,3.5,1.7.8,3.08,1.45,4.11,1.94-3.28,11.45-6.27,20.86-6.87,25.12l.09-.76Z"/><path class="cls-6" d="m559.57,398.74c18.07,14.95,34.42,32.87,54.98,37.85,20.56,4.98,56.23,7.63,73.83-14.02,17.6-21.65,12.77-39.56,11.06-56.54-1.71-16.98-4.21-30.42-2.49-36.45,2.41-8.49,8.41-6.23,8.41-6.23,33.64,17.13,56.39,30.53,85.51-5.45,29.13-35.98,2.96-84.27-5.61-104.67-8.57-20.41-20.56-40.81-49.38-55.3-28.82-14.49-64.64-31.93-96.88-31.15-32.24.78-63.08,7.32-73.99,8.88-10.9,1.56-26.01-5.76-26.01-5.76,0,0-.47,9.19-5.76,32.24-5.3,23.05-19.78,50.93-20.4,62.15-.62,11.21-.47,25.39,4.67,27.41,5.14,2.02,24.92,15.89,42.99,21.18,18.07,5.3,37.23,12.31,50.15,11.53,12.93-.78,29.28,2.8,14.33,13.71-14.95,10.9-45.64,8.57-66.04-.31-20.4-8.88-38.63-35.51-38.63-35.51,0,0-2.42,23.6,1.09,41.59,3.51,17.99,9.81,50,15.11,46.26,5.3-3.74,12.93-4.83,34.11-7.01,21.18-2.18,51.56-8.88,59.35-9.81,7.79-.93,15.26-.93,10.59,3.74-4.67,4.67-37.85,22.27-55.14,27.41-17.29,5.14-24.14,2.34-28.35.31-4.21-2.03-21.7-17.65-20.97-11.63.73,6.02,5.4,30.63,23.47,45.58Zm163.86-226.48c6.39-8.88,4.52,15.73,0,31.46-4.52,15.73-8.72,42.68-27.26,64.02,0,0-6.66,6.19-3.74-6.23,1.58-6.73,8.88-15.11,17.6-34.73,8.72-19.63,7.01-45.64,13.4-54.52Zm-65.65,68.15c-4.75-6,2.49-27.26,4.67-38.63,2.18-11.37,1.89-20.58,2.34-23.68.78-5.45,2.65-3.58,2.65-3.58,8.41,10.75,10.9,25.08,7.48,42.06-3.43,16.98-12.38,29.83-17.13,23.83Zm-109.42,7.55c-17.76-7.63-24.53-20.33-27.73-33.49,0,0-.93-2.02,1.48-3.82,2.41-1.79,13.08,4.67,30.84,11.68,17.76,7.01,37.46,10.51,46.5,15.97,9.03,5.45,5.22,10.05-2.65,15.58-7.87,5.53-30.69,1.71-48.44-5.92Z"/><path class="cls-8" d="m601.17,381.41c.74-.26,1.56-.56,2.46-.88.89-.32,1.86-.68,2.88-1.07,1.03-.39,2.12-.8,3.26-1.26,1.14-.45,2.35-.92,3.6-1.44,1.25-.52,2.56-1.04,3.89-1.63,1.33-.58,2.73-1.16,4.13-1.82,1.41-.65,2.86-1.29,4.32-2.02,1.46-.72,2.96-1.43,4.45-2.23.75-.39,1.5-.79,2.27-1.19.76-.4,1.5-.84,2.26-1.27.76-.43,1.52-.86,2.28-1.3.75-.47,1.5-.93,2.25-1.4,1.53-.91,2.98-1.97,4.47-2.99.76-.5,1.45-1.07,2.15-1.63.7-.57,1.4-1.11,2.11-1.7,2.72-2.37,5.43-4.73,8.11-7.06,1.33-1.17,2.66-2.33,3.98-3.44.66-.56,1.32-1.12,1.97-1.68.65-.56,1.3-1.11,1.96-1.63,1.31-1.06,2.6-2.1,3.86-3.11,1.3-.97,2.57-1.92,3.8-2.84,1.22-.94,2.47-1.77,3.67-2.6,1.2-.82,2.36-1.61,3.47-2.37,2.27-1.44,4.36-2.76,6.21-3.93,1.86-1.16,3.53-2.11,4.87-2.92,2.71-1.61,4.26-2.53,4.26-2.53l-.34-.57c1.44,1.72,2.56,3.05,3.22,3.84l-.67-.34s-.18.35-.52,1.02c-.33.67-.84,1.62-1.45,2.88-.31.62-.64,1.32-1.01,2.07-.36.76-.74,1.58-1.16,2.45-.82,1.75-1.72,3.74-2.67,5.92-.95,2.18-1.96,4.56-2.98,7.08-1.03,2.52-2.08,5.2-3.14,7.98-2.12,5.56-4.27,11.52-6.44,17.48-2.18,5.95-4.36,11.91-6.81,17.31-1.23,2.7-2.53,5.26-4,7.55-.39.56-.73,1.13-1.14,1.65-.2.26-.39.53-.59.78-.21.25-.42.49-.63.73-.84.96-1.7,1.85-2.5,2.73-3.23,3.49-5.92,6.4-7.81,8.43-1.91,2.01-3.01,3.16-3.01,3.16,0,0,1.1-1.14,3.03-3.13,1.9-2.02,4.62-4.9,7.88-8.36.81-.87,1.68-1.75,2.53-2.71.21-.24.42-.49.64-.73.2-.26.4-.52.6-.78.42-.52.77-1.09,1.16-1.65,1.5-2.29,2.82-4.85,4.08-7.55,2.51-5.4,4.74-11.34,6.97-17.28,2.22-5.94,4.42-11.88,6.59-17.42,1.09-2.76,2.15-5.43,3.21-7.94,1.05-2.51,2.07-4.87,3.04-7.04.97-2.17,1.89-4.14,2.72-5.88.42-.87.81-1.68,1.17-2.43.37-.75.72-1.43,1.03-2.05.61-1.24,1.13-2.2,1.47-2.86.27-.52.44-.85.5-.96.38.46.59.7.59.7,0,0,.69-1.81,2.19-3.08,1.49-1.27,4.41-1.34,4.41-1.34-.79-.74-2.06-2.05-3.72-3.81.38-.21,1.48-.83,3.15-1.78,1.05-.58,2.32-1.33,3.79-2.12,1.49-.76,3.16-1.63,4.99-2.57.46-.23.93-.47,1.4-.72.48-.23.98-.46,1.48-.7,1-.48,2.04-.97,3.11-1.47,2.12-1.04,4.42-2.02,6.77-3.06,2.35-1.06,4.83-2.05,7.33-3.08.63-.26,1.26-.51,1.89-.77.64-.25,1.27-.49,1.91-.74,1.28-.49,2.56-.99,3.85-1.48,2.57-.99,5.17-1.89,7.71-2.82,2.56-.87,5.08-1.76,7.53-2.56,2.45-.8,4.82-1.58,7.09-2.27,2.26-.71,4.4-1.35,6.38-1.93,1.98-.59,3.81-1.09,5.42-1.55,1.62-.44,3.03-.83,4.2-1.13,2.33-.62,3.67-.94,3.67-.94,0,0-1.34.3-3.68.88-1.17.28-2.59.66-4.21,1.07-1.62.44-3.46.91-5.44,1.47-1.99.55-4.15,1.16-6.41,1.84-2.28.65-4.66,1.4-7.13,2.17-2.47.76-5,1.62-7.58,2.45-2.56.9-5.18,1.76-7.77,2.71-1.29.48-2.59.95-3.88,1.43-.64.24-1.29.48-1.93.71-.64.25-1.27.5-1.9.75-2.52,1-5.02,1.95-7.4,2.98-2.38,1.01-4.7,1.95-6.84,2.96-1.08.49-2.13.97-3.14,1.43-.51.23-1.01.46-1.5.68-.48.24-.96.47-1.42.7-1.86.92-3.56,1.77-5.07,2.52-1.5.77-2.77,1.49-3.83,2.06-2.12,1.15-3.33,1.81-3.33,1.81l.32.58c-2.12-2.26-4.82-5.2-7.94-8.63l.9.64s1.2-1.7,3.29-4.67c2.1-2.96,5.11-7.19,8.76-12.23,3.65-5.04,7.95-10.9,12.57-17.17,4.61-6.27,9.56-12.95,14.36-19.75,4.79-6.8,9.44-13.72,13.16-20.59,1.86-3.43,3.5-6.84,4.84-10.16.66-1.67,1.26-3.3,1.79-4.9.52-1.6.98-3.16,1.44-4.65,1.8-5.96,3.3-10.93,4.35-14.41.52-1.74.92-3.11,1.2-4.04.13-.47.24-.83.31-1.07.07-.24.1-.37.09-.36,0-.01-.03.12-.1.36-.07.24-.18.6-.33,1.06-.29.93-.72,2.29-1.27,4.02-1.11,3.46-2.69,8.41-4.59,14.34-.48,1.48-.96,3.03-1.51,4.61-.54,1.58-1.18,3.2-1.85,4.84-1.39,3.28-3.07,6.64-4.98,10.02-3.81,6.77-8.56,13.59-13.44,20.29-4.9,6.7-9.95,13.29-14.67,19.49-4.72,6.19-9.12,11.99-12.86,16.97-3.74,4.99-6.82,9.17-8.98,12.1-1.73,2.36-2.86,3.91-3.23,4.42-6.62-7.29-14.99-16.64-23.7-26.43.27-.69.6-1.51.97-2.44.64-1.6,1.42-3.54,2.32-5.77.91-2.23,1.93-4.74,3.04-7.47,2.25-5.47,4.87-11.86,7.67-18.7,1.39-3.43,2.83-6.97,4.23-10.6.35-.91.71-1.81,1.06-2.73.34-.92.69-1.84,1.03-2.76.35-.92.69-1.84,1.04-2.77l.99-2.79.99-2.79c.31-.94.62-1.87.93-2.81.31-.94.63-1.86.92-2.8.29-.94.57-1.87.85-2.8.59-1.85,1.07-3.72,1.57-5.56.13-.46.25-.92.37-1.38.12-.46.22-.92.33-1.38.21-.92.42-1.83.63-2.73.23-.9.38-1.81.55-2.7.17-.89.33-1.78.5-2.66.29-1.76.49-3.49.73-5.18.16-1.69.32-3.33.48-4.92.08-.79.15-1.57.23-2.34.08-.76.15-1.52.19-2.26.18-2.96.42-5.66.44-8.07.02-.6.03-1.18.05-1.74.02-.56.03-1.1.02-1.62-.02-1.04-.03-2-.05-2.86-.04-.86-.12-1.63-.16-2.3-.02-.34-.06-.64-.1-.92-.04-.28-.08-.54-.11-.76-.15-.91-.34-1.37-.34-1.37,0,0,.18.46.32,1.38.03.23.07.48.1.77.04.28.08.59.09.92.04.67.1,1.44.13,2.3,0,.86,0,1.82,0,2.86.01.52,0,1.06-.04,1.62-.02.56-.05,1.14-.08,1.74-.06,2.4-.33,5.1-.55,8.05-.05.74-.13,1.49-.22,2.25-.08.77-.17,1.54-.26,2.34-.18,1.58-.36,3.22-.55,4.9-.26,1.67-.49,3.39-.8,5.14-.18.87-.35,1.75-.53,2.64-.18.89-.35,1.79-.59,2.68-.22.9-.44,1.8-.67,2.71-.12.45-.22.91-.34,1.37-.13.45-.26.91-.39,1.37-.52,1.83-1.03,3.68-1.65,5.52-.3.92-.59,1.85-.89,2.78-.3.93-.64,1.85-.96,2.78-.32.93-.65,1.85-.97,2.78l-1.03,2.77-1.03,2.77c-.36.92-.72,1.83-1.07,2.75-.36.91-.71,1.83-1.07,2.73-.37.9-.73,1.81-1.1,2.71-1.45,3.6-2.93,7.12-4.37,10.52-2.9,6.8-5.61,13.15-7.93,18.59-1.15,2.73-2.21,5.22-3.15,7.44-.93,2.22-1.73,4.16-2.4,5.75-.25.6-.47,1.14-.68,1.64-13.23-14.88-27.07-30.59-36.61-41.47-2.02-2.31-4.24-4.82-6.58-7.47.06-.49.15-1.2.26-2.1.11-.91.27-2.02.35-3.31.09-1.29.23-2.74.32-4.32.06-1.58.13-3.29.2-5.1.02-1.81.04-3.72.06-5.7-.03-1.97-.03-4.01-.09-6.09-.08-2.07-.1-4.18-.22-6.28-.1-2.1-.19-4.2-.33-6.27-.06-1.03-.13-2.06-.19-3.07-.07-1.01-.15-2.01-.22-2.99-.14-1.97-.31-3.87-.46-5.67-.17-1.8-.33-3.5-.47-5.07-.16-1.57-.32-3.01-.45-4.28-.14-1.27-.27-2.38-.37-3.3-.22-1.83-.35-2.87-.35-2.87,0,0,.11,1.05.3,2.88.09.92.19,2.03.31,3.3.11,1.28.23,2.72.36,4.29.12,1.57.24,3.28.38,5.08.11,1.8.25,3.7.35,5.67.05.98.11,1.98.17,3,.04,1.01.09,2.04.13,3.07.1,2.06.15,4.17.21,6.26.08,2.1.06,4.2.1,6.27.02,2.07-.02,4.1-.03,6.07-.06,1.97-.12,3.87-.17,5.67-.11,1.8-.21,3.5-.3,5.07-.11,1.57-.28,2.99-.39,4.25-.1,1.26-.28,2.37-.41,3.28-.05.36-.1.69-.14.99-23.37-26.36-58.63-65.09-50.69-54.64,6.54,8.6,48.82,59.2,74.69,89.93-.84.05-1.98.12-3.39.2-1.6.08-3.55.18-5.78.3-2.23.09-4.76.21-7.51.29-2.75.09-5.73.15-8.89.19-1.58,0-3.2,0-4.85.01-1.65-.03-3.35-.02-5.07-.07-1.72-.05-3.47-.08-5.23-.18-.88-.04-1.77-.09-2.67-.13-.89-.06-1.79-.12-2.69-.19l-1.35-.09-1.36-.12c-.9-.09-1.81-.17-2.72-.25-1.81-.22-3.64-.41-5.45-.7-1.82-.24-3.62-.59-5.41-.91-1.78-.38-3.57-.74-5.31-1.21-.44-.11-.87-.22-1.31-.33-.43-.13-.86-.25-1.29-.38-.86-.25-1.72-.51-2.57-.76-.85-.25-1.7-.5-2.53-.75-.84-.24-1.66-.53-2.48-.79-1.64-.53-3.25-1.05-4.82-1.56-1.57-.54-3.1-1.06-4.59-1.57-2.99-1.01-5.79-2.04-8.39-2.97-2.6-.92-4.96-1.82-7.06-2.59-2.1-.79-3.92-1.48-5.43-2.05-3-1.16-4.71-1.82-4.71-1.82,0,0,1.71.68,4.69,1.88,1.5.58,3.32,1.29,5.4,2.11,2.09.79,4.44,1.72,7.03,2.67,2.58.96,5.38,2.02,8.36,3.06,1.49.53,3.02,1.07,4.58,1.63,1.57.53,3.18,1.07,4.81,1.62.82.27,1.64.57,2.48.82.84.26,1.68.51,2.53.78.85.26,1.7.52,2.56.78.43.13.86.26,1.29.39.44.12.87.23,1.31.35,1.75.49,3.54.87,5.33,1.28,1.8.34,3.61.71,5.43.98,1.82.31,3.65.52,5.47.76.91.1,1.82.19,2.73.29l1.36.14,1.36.11c.9.07,1.8.15,2.7.22.9.05,1.79.11,2.67.16,1.77.12,3.53.17,5.25.24,1.72.07,3.42.09,5.08.13,1.66.01,3.28.03,4.87.04,3.16,0,6.15-.03,8.91-.09,2.76-.05,5.29-.14,7.53-.21,2.24-.09,4.19-.17,5.8-.23,2.08-.1,3.58-.17,4.38-.21,8.74,10.38,15.46,18.31,18.02,21.27,3.57,4.12,8.67,10.13,13.78,16.17-.42,0-.91,0-1.46,0-.72.03-1.54.04-2.45.11-1.83.11-4.03.38-6.52.8-2.49.42-5.27,1.01-8.28,1.72-6.01,1.43-12.93,3.36-20.37,5.22-7.44,1.87-15.44,3.64-23.53,4.89-4.04.63-8.1,1.14-12.12,1.51-4.02.37-7.97.65-11.81.83-7.67.37-14.85.36-20.99.03-6.14-.33-11.23-.96-14.76-1.61-1.76-.32-3.14-.64-4.07-.89-.46-.13-.82-.24-1.05-.32-.12-.04-.2-.08-.26-.1-.05-.03-.08-.05-.08-.05,0,0,.03.02.08.05.06.03.14.07.26.11.23.09.58.2,1.04.34.92.26,2.29.61,4.06.96,3.52.71,8.61,1.43,14.76,1.86,6.14.44,13.34.57,21.04.33,3.85-.12,7.83-.33,11.86-.64,4.04-.3,8.13-.74,12.2-1.31,8.15-1.12,16.22-2.76,23.72-4.51,7.5-1.74,14.45-3.57,20.44-4.88,2.99-.66,5.74-1.19,8.18-1.56,2.44-.37,4.58-.59,6.33-.67.88-.06,1.66-.05,2.34-.06.67.02,1.23.02,1.7.04.96.06,1.47.09,1.47.09v-.22c4.81,5.69,9.46,11.22,12.67,15.06-.36.22-1.82,1.11-4.14,2.52-1.34.83-2.99,1.79-4.85,2.98-1.85,1.2-3.93,2.55-6.2,4.03-1.11.78-2.26,1.59-3.46,2.43-1.19.84-2.44,1.69-3.66,2.65-1.23.94-2.5,1.91-3.8,2.9-1.26,1.04-2.54,2.1-3.85,3.17-.66.53-1.3,1.09-1.95,1.66-.65.56-1.3,1.13-1.96,1.7-1.32,1.14-2.63,2.31-3.95,3.49-2.65,2.36-5.33,4.76-8.02,7.15-.67.57-1.39,1.14-2.08,1.71-.7.57-1.38,1.15-2.12,1.65-1.45,1.03-2.88,2.09-4.39,3.02-.74.48-1.49.95-2.23,1.42-.76.44-1.51.88-2.26,1.32-.75.43-1.49.88-2.24,1.29-.75.41-1.5.81-2.24,1.21-1.48.82-2.97,1.54-4.42,2.27-1.44.74-2.89,1.4-4.29,2.07-1.39.67-2.78,1.27-4.1,1.87-1.32.6-2.62,1.14-3.87,1.67-1.24.54-2.44,1.02-3.58,1.48-1.14.47-2.22.9-3.25,1.3-1.02.4-1.98.77-2.87,1.1-.89.34-1.7.65-2.45.91-2.96,1.09-4.67,1.65-4.67,1.65,0,0,1.72-.55,4.69-1.6Z"/><path class="cls-1" d="m699.87,324.46c70.55,67.4,146.54,55.84,258.3,229.25"/><path class="cls-2" d="m1053.63,379.26c-15.31,83.36-70.41,102.4-70.41,172.08"/></svg>