<?xml version="1.0" encoding="UTF-8"?><svg id="Layer_1" xmlns="http://www.w3.org/2000/svg" viewBox="0 0 640.57 870.95"><defs><style>.cls-1{fill:#43ba6b;}.cls-1,.cls-2,.cls-3,.cls-4,.cls-5,.cls-6,.cls-7,.cls-8,.cls-9,.cls-10,.cls-11,.cls-12{fill-rule:evenodd;}.cls-1,.cls-2,.cls-3,.cls-4,.cls-5,.cls-6,.cls-7,.cls-8,.cls-9,.cls-10,.cls-11,.cls-12,.cls-13,.cls-14,.cls-15,.cls-16,.cls-17,.cls-18,.cls-19,.cls-20{stroke-width:0px;}.cls-2,.cls-15{fill:#9ab0b5;}.cls-3{fill:#b0b0b0;}.cls-4{fill:#bdbdbd;}.cls-5,.cls-16{fill:#ccc;}.cls-6{fill:#dedede;}.cls-7,.cls-20{fill:#e89756;}.cls-8{fill:#e8c74f;}.cls-9{fill:#fff;}.cls-10{fill:#f06a60;}.cls-11{fill:#8f8f8f;}.cls-12{fill:#f2f2f2;}.cls-13{fill:#79b1bd;}.cls-14{fill:#55565a;}.cls-17{fill:#d9d9d9;}.cls-18{fill:#b8b8b8;}.cls-19{fill:#ebeff0;}</style></defs><polygon class="cls-9" points="640.57 61.52 640.57 870.95 0 870.95 0 161.5 640.57 161.5 640.57 61.52 640.57 61.52"/><rect class="cls-19" x="0" y="218.45" width="640.57" height="566.74"/><rect class="cls-18" x="273.06" y="235.15" width="94.46" height="6.46"/><rect class="cls-18" x="292.38" y="805.05" width="55.82" height="6.46"/><rect class="cls-18" x="219.89" y="196.11" width="24.1" height="3.84"/><rect class="cls-15" x="226.3" y="180.6" width="11.29" height="12.04"/><rect class="cls-18" x="284.4" y="196.11" width="15.12" height="3.84"/><rect class="cls-15" x="286.32" y="180.6" width="11.29" height="12.04"/><rect class="cls-18" x="341.57" y="196.11" width="20.83" height="3.84"/><rect class="cls-15" x="346.34" y="180.6" width="11.29" height="12.04"/><rect class="cls-18" x="403.32" y="196.11" width="17.36" height="3.84"/><rect class="cls-15" x="406.36" y="180.6" width="11.29" height="12.04"/><path class="cls-2" d="m50.95,296.32h91.32c1.57,0,2.85,1.29,2.85,2.85v69.94H48.09v-69.94c0-1.57,1.28-2.85,2.85-2.85Z"/><path class="cls-9" d="m145.13,369.11v50.21c0,1.56-1.29,2.85-2.85,2.85H50.95c-1.56,0-2.85-1.28-2.85-2.85v-50.21h97.03Z"/><path class="cls-2" d="m162.79,296.32h91.32c1.57,0,2.85,1.29,2.85,2.85v69.94h-97.03v-69.94c0-1.57,1.28-2.85,2.85-2.85Z"/><path class="cls-9" d="m256.96,369.11v50.21c0,1.56-1.29,2.85-2.85,2.85h-91.32c-1.56,0-2.85-1.28-2.85-2.85v-50.21h97.03Z"/><path class="cls-2" d="m274.63,296.32h91.32c1.57,0,2.86,1.29,2.86,2.85v69.94h-97.03v-69.94c0-1.57,1.28-2.85,2.85-2.85Z"/><path class="cls-9" d="m368.8,369.11v50.21c0,1.56-1.29,2.85-2.86,2.85h-91.32c-1.56,0-2.85-1.28-2.85-2.85v-50.21h97.03Z"/><path class="cls-2" d="m386.46,296.32h91.32c1.57,0,2.86,1.29,2.86,2.85v69.94h-97.03v-69.94c0-1.57,1.28-2.85,2.85-2.85Z"/><path class="cls-9" d="m480.64,369.11v50.21c0,1.56-1.29,2.85-2.86,2.85h-91.32c-1.56,0-2.85-1.28-2.85-2.85v-50.21h97.03Z"/><path class="cls-2" d="m498.31,296.32h91.32c1.57,0,2.86,1.29,2.86,2.85v69.94h-97.03v-69.94c0-1.57,1.28-2.85,2.85-2.85Z"/><path class="cls-9" d="m592.48,369.11v50.21c0,1.56-1.29,2.85-2.86,2.85h-91.32c-1.56,0-2.85-1.28-2.85-2.85v-50.21h97.03Z"/><rect class="cls-18" x="258.53" y="447.69" width="123.52" height="6.46"/><path class="cls-2" d="m50.95,466h91.32c1.57,0,2.85,1.29,2.85,2.85v69.94H48.09v-69.94c0-1.57,1.28-2.85,2.85-2.85Z"/><path class="cls-9" d="m145.13,538.79v50.21c0,1.56-1.29,2.85-2.85,2.85H50.95c-1.56,0-2.85-1.28-2.85-2.85v-50.21h97.03Z"/><path class="cls-2" d="m162.79,466h91.32c1.57,0,2.85,1.29,2.85,2.85v69.94h-97.03v-69.94c0-1.57,1.28-2.85,2.85-2.85Z"/><path class="cls-9" d="m256.96,538.79v50.21c0,1.56-1.29,2.85-2.85,2.85h-91.32c-1.56,0-2.85-1.28-2.85-2.85v-50.21h97.03Z"/><path class="cls-2" d="m274.63,466h91.32c1.57,0,2.86,1.29,2.86,2.85v69.94h-97.03v-69.94c0-1.57,1.28-2.85,2.85-2.85Z"/><path class="cls-9" d="m368.8,538.79v50.21c0,1.56-1.29,2.85-2.86,2.85h-91.32c-1.56,0-2.85-1.28-2.85-2.85v-50.21h97.03Z"/><path class="cls-2" d="m386.46,466h91.32c1.57,0,2.86,1.29,2.86,2.85v69.94h-97.03v-69.94c0-1.57,1.28-2.85,2.85-2.85Z"/><path class="cls-9" d="m480.64,538.79v50.21c0,1.56-1.29,2.85-2.86,2.85h-91.32c-1.56,0-2.85-1.28-2.85-2.85v-50.21h97.03Z"/><path class="cls-2" d="m498.31,466h91.32c1.57,0,2.86,1.29,2.86,2.85v69.94h-97.03v-69.94c0-1.57,1.28-2.85,2.85-2.85Z"/><path class="cls-9" d="m592.48,538.79v50.21c0,1.56-1.29,2.85-2.86,2.85h-91.32c-1.56,0-2.85-1.28-2.85-2.85v-50.21h97.03Z"/><rect class="cls-18" x="258.53" y="615.87" width="123.52" height="6.46"/><path class="cls-2" d="m50.95,634.17h91.32c1.57,0,2.85,1.29,2.85,2.85v69.94H48.09v-69.94c0-1.57,1.28-2.85,2.85-2.85Z"/><path class="cls-9" d="m145.13,706.97v50.21c0,1.56-1.29,2.86-2.85,2.86H50.95c-1.56,0-2.85-1.29-2.85-2.86v-50.21h97.03Z"/><path class="cls-2" d="m162.79,634.17h91.32c1.57,0,2.85,1.29,2.85,2.85v69.94h-97.03v-69.94c0-1.57,1.28-2.85,2.85-2.85Z"/><path class="cls-9" d="m256.96,706.97v50.21c0,1.56-1.29,2.86-2.85,2.86h-91.32c-1.56,0-2.85-1.29-2.85-2.86v-50.21h97.03Z"/><path class="cls-2" d="m274.63,634.17h91.32c1.57,0,2.86,1.29,2.86,2.85v69.94h-97.03v-69.94c0-1.57,1.28-2.85,2.85-2.85Z"/><path class="cls-9" d="m368.8,706.97v50.21c0,1.56-1.29,2.86-2.86,2.86h-91.32c-1.56,0-2.85-1.29-2.85-2.86v-50.21h97.03Z"/><path class="cls-2" d="m386.46,634.17h91.32c1.57,0,2.86,1.29,2.86,2.85v69.94h-97.03v-69.94c0-1.57,1.28-2.85,2.85-2.85Z"/><path class="cls-9" d="m480.64,706.97v50.21c0,1.56-1.29,2.86-2.86,2.86h-91.32c-1.56,0-2.85-1.29-2.85-2.86v-50.21h97.03Z"/><path class="cls-2" d="m498.31,634.17h91.32c1.57,0,2.86,1.29,2.86,2.85v69.94h-97.03v-69.94c0-1.57,1.28-2.85,2.85-2.85Z"/><path class="cls-9" d="m592.48,706.97v50.21c0,1.56-1.29,2.86-2.86,2.86h-91.32c-1.56,0-2.85-1.29-2.85-2.86v-50.21h97.03Z"/><rect class="cls-18" x="0" width="640.57" height="30.65"/><path class="cls-3" d="m178.16,12.33h9.32c3.39,0,6.16,2.77,6.16,6.16,0,7.94,1.94,12.94,10.88,11.58v24.01h-26.35V12.33Z"/><path class="cls-4" d="m169.24,12.33h9.32c3.39,0,6.16,2.77,6.16,6.16,0,7.94,1.94,12.94,10.88,11.58v24.01h-26.35V12.33Z"/><path class="cls-5" d="m81.1,12.33h87.93c3.39,0,6.16,2.77,6.16,6.16,0,7.94,1.94,12.94,10.88,11.58v24.01h-121.99v-24.01c8.93,1.36,10.88-3.64,10.88-11.58,0-3.39,2.77-6.16,6.16-6.16Z"/><rect class="cls-16" y="29.59" width="640.57" height="31.93"/><path class="cls-10" d="m18.58,21.49c-3.7,0-6.7-3-6.7-6.7s3-6.7,6.7-6.7,6.7,3,6.7,6.7-3,6.7-6.7,6.7Z"/><path class="cls-8" d="m37.77,21.49c-3.7,0-6.7-3-6.7-6.7s3-6.7,6.7-6.7,6.7,3,6.7,6.7-3,6.7-6.7,6.7Z"/><path class="cls-1" d="m56.96,21.49c-3.7,0-6.7-3-6.7-6.7s3-6.7,6.7-6.7,6.7,3,6.7,6.7-3,6.7-6.7,6.7Z"/><path class="cls-11" d="m14.62,45.53c2.46,2.46,4.92,4.93,7.38,7.39l1.61-1.6-4.63-4.64,14.68-.03v-2.27s-14.68.03-14.68.03l4.63-4.62-1.61-1.61c-2.46,2.45-4.91,4.9-7.37,7.36h0Zm46.3,0c-2.46,2.46-4.92,4.93-7.38,7.39l-1.61-1.6,4.63-4.64-14.68-.03v-2.27s14.68.03,14.68.03l-4.62-4.62,1.61-1.61c2.46,2.45,4.91,4.9,7.37,7.36Z"/><path class="cls-11" d="m606.7,40.68l23.89-.03v-3.13s-23.89.03-23.89.03v3.13h0Zm0,12.91l23.89-.03v-3.13s-23.89.03-23.89.03v3.13h0Zm0-6.45l23.89-.03v-3.13s-23.89.03-23.89.03v3.13Z"/><polygon class="cls-11" points="200.88 25.57 200.88 22.04 197.31 22.04 197.31 19.61 200.88 19.61 200.88 16.08 203.25 16.08 203.25 19.61 206.82 19.61 206.82 22.04 203.25 22.04 203.25 25.57 200.88 25.57"/><polygon class="cls-11" points="169.12 25.02 166.62 22.52 164.1 25.05 162.38 23.33 164.9 20.81 162.41 18.31 164.09 16.63 166.58 19.13 169.1 16.61 170.82 18.33 168.3 20.85 170.79 23.34 169.12 25.02"/><path class="cls-12" d="m83.39,35.4h505.82c8.66,0,8.66,20.31,0,20.31H83.39c-8.66,0-8.66-20.31,0-20.31Z"/><polygon class="cls-5" points="583.77 42.84 588.4 43.95 585.31 47.58 585.68 52.32 581.28 50.51 576.87 52.32 577.24 47.58 574.16 43.95 578.78 42.84 581.28 38.78 583.77 42.84"/><path class="cls-11" d="m627.98,5.4l-1.14,10.09-2.65-2.65c-3.09,3.11-4.39,4.4-7.5,7.5l2.65,2.65-10.03,1.2,1.2-10.04,2.67,2.67c2.5-2.49,5-4.99,7.49-7.49l-2.67-2.67,9.98-1.26Z"/><rect class="cls-14" x="0" y="61.48" width="640.57" height="100.02"/><rect class="cls-17" x="235.96" y="142.22" width="168.66" height="6.46"/><rect class="cls-17" x="271.49" y="122.41" width="50.38" height="10.84"/><rect class="cls-13" x="325.84" y="122.41" width="43.25" height="10.84"/><rect class="cls-17" x="160.48" y="74.3" width="16.85" height="13.52"/><path class="cls-13" d="m415.23,75.92h19.16c.57,0,1.03.46,1.03,1.03v8.24c0,.57-.46,1.03-1.03,1.03h-19.16c-.57,0-1.03-.46-1.03-1.03v-8.23c0-.57.46-1.03,1.03-1.03Z"/><rect class="cls-20" x="437.52" y="75.92" width="42.57" height="10.29" rx="1.03" ry="1.03"/><path class="cls-7" d="m275.81,828.49h88.96c1.24,0,2.26,1.03,2.26,2.26v18.08c0,1.22-1.03,2.26-2.26,2.26h-88.96c-1.22,0-2.26-1.01-2.26-2.26v-18.08c0-1.24,1.02-2.26,2.26-2.26Z"/><path class="cls-9" d="m191.5,249.92h222.96v16.72h-222.96c-.75,0-1.4-.63-1.4-1.4v-13.91c0-.77.63-1.4,1.4-1.4Z"/><path class="cls-6" d="m191.5,249.02h256.8c.63,0,1.21.26,1.62.68h0c.42.42.68,1,.68,1.63v13.91c0,.62-.27,1.2-.68,1.62-.42.42-1,.68-1.62.68H191.5c-.62,0-1.2-.26-1.62-.68h0c-.42-.41-.68-.99-.68-1.62v-13.91c0-.63.26-1.21.68-1.63h0c.42-.42.99-.68,1.63-.68h0Zm222.96,1.8h-222.96c-.14,0-.27.06-.36.14h0c-.09.09-.15.22-.15.36v13.91c0,.13.06.26.15.35h0c.09.1.22.15.35.15h222.96v1.71h34.27c.81,0,1.75-1.21,1.75-2.02v-14.47c0-.81-.92-1.8-1.75-1.8h-34.27v1.66Z"/><path class="cls-7" d="m414.46,249.15h34.27c.83,0,1.76.99,1.76,1.8v14.47c0,.81-.95,2.02-1.76,2.02h-34.27v-18.29Z"/></svg>