<?xml version="1.0" encoding="UTF-8"?><svg id="Layer_1" xmlns="http://www.w3.org/2000/svg" viewBox="0 0 1592.77 1046.38"><defs><style>.cls-1,.cls-2,.cls-3,.cls-4,.cls-5,.cls-6,.cls-7,.cls-8,.cls-9,.cls-10,.cls-11,.cls-12,.cls-13,.cls-14,.cls-15,.cls-16{stroke-width:0px;}.cls-2{fill:#79b3d3;}.cls-3{fill:#334d5c;}.cls-4{fill:#17bb99;}.cls-5{fill:#122d44;}.cls-6{fill:#122438;}.cls-7{fill:#ccc;}.cls-8{fill:#e0e0e0;}.cls-9{fill:#e1e9ef;}.cls-10{fill:#e29616;}.cls-11{fill:#a4b0be;}.cls-12{fill:#89c0c8;}.cls-13{fill:#fff;}.cls-14{fill:#f19b0f;}.cls-15{fill:#fbdd82;}.cls-16{fill:#e6e6e6;}</style></defs><path class="cls-5" d="m1400.37,992.21H192.39V247.14c0-16.8,13.62-30.42,30.42-30.42h1147.13c16.8,0,30.42,13.62,30.42,30.42v745.07Z"/><rect class="cls-9" x="237.14" y="261.46" width="1118.5" height="686.01"/><rect class="cls-7" x="237.14" y="261.46" width="1118.5" height="58.41"/><path class="cls-9" d="m1335.12,291.13c0,5.32-4.31,9.63-9.63,9.63s-9.63-4.31-9.63-9.63,4.31-9.63,9.63-9.63,9.63,4.31,9.63,9.63Z"/><path class="cls-9" d="m1303,291.13c0,5.32-4.31,9.63-9.63,9.63s-9.63-4.31-9.63-9.63,4.31-9.63,9.63-9.63,9.63,4.31,9.63,9.63Z"/><path class="cls-9" d="m1271.1,291.13c0,5.32-4.31,9.63-9.63,9.63s-9.63-4.31-9.63-9.63,4.32-9.63,9.63-9.63,9.63,4.31,9.63,9.63Z"/><rect class="cls-2" x="0" y="984.24" width="1592.77" height="62.14" rx="20.81" ry="20.81"/><rect class="cls-16" x="0" y="972.32" width="1592.77" height="62.14" rx="20.81" ry="20.81"/><path class="cls-11" d="m602.2,972.32h0c0,12.11,9.82,21.93,21.93,21.93h344.51c12.11,0,21.93-9.82,21.93-21.93h-388.37Z"/><path class="cls-3" d="m1235.46,648.94c0,16.66-13.52,30.19-30.27,30.19l-697.76.63-119.58.09c-16.75,0-30.27-13.52-30.27-30.19l-.27-618.75c0-16.66,13.53-30.19,30.19-30.19l119.93-.09L1204.91,0c16.66,0,30.19,13.53,30.19,30.19l.36,618.75Z"/><path class="cls-6" d="m404.15.63v679.12l-16.3.09c-16.75,0-30.27-13.52-30.27-30.19l-.27-618.75c0-16.66,13.53-30.19,30.19-30.19l16.66-.09Z"/><path class="cls-6" d="m1235.16,83.98l-877.82.72-.03-53.79c0-16.68,13.51-30.21,30.19-30.22L1204.91,0c16.69,0,30.22,13.51,30.23,30.2l.02,53.79Z"/><path class="cls-8" d="m438.06,59.38h-20.79c-2.85.01-5.16-2.3-5.16-5.15v-20.81c-.01-2.85,2.3-5.16,5.15-5.16h20.79c2.85-.01,5.16,2.3,5.16,5.15v20.81c.01,2.85-2.3,5.16-5.15,5.16Z"/><polygon class="cls-1" points="431.39 51.82 421.32 43.69 431.38 35.51 431.39 51.82"/><path class="cls-8" d="m467.94,59.37h20.84c2.85-.01,5.16-2.32,5.16-5.17v-20.81c-.01-2.85-2.32-5.16-5.17-5.16h-20.84c-2.85.01-5.16,2.32-5.16,5.17v20.81c0,2.85,2.32,5.16,5.17,5.16Z"/><polygon class="cls-1" points="474.65 51.8 484.72 43.66 474.65 35.5 474.65 51.8"/><path class="cls-3" d="m1084.03,42.55c0,8.93-7.21,16.18-16.16,16.18-8.96,0-16.2-7.23-16.21-16.17,0-8.94,7.23-16.18,16.19-16.19,8.94,0,16.17,7.23,16.17,16.17Z"/><path class="cls-3" d="m1141.53,42.52c0,8.94-7.24,16.18-16.17,16.18-8.94,0-16.15-7.23-16.16-16.17,0-8.94,7.2-16.18,16.14-16.19,8.93,0,16.18,7.23,16.18,16.17Z"/><path class="cls-10" d="m1196.87,42.49c0,8.94-7.18,16.18-16.11,16.18-8.96,0-16.22-7.23-16.22-16.17,0-8.94,7.24-16.18,16.2-16.19,8.93,0,16.12,7.23,16.12,16.17Z"/><rect class="cls-8" x="508.83" y="124.52" width="11.71" height="504.16"/><rect class="cls-8" x="461.65" y="140.13" width="19.48" height="19.48"/><rect class="cls-8" x="461.67" y="182.82" width="19.48" height="19.46"/><rect class="cls-8" x="461.69" y="225.49" width="19.48" height="19.52"/><rect class="cls-8" x="461.71" y="268.18" width="19.48" height="19.52"/><rect class="cls-8" x="461.73" y="310.89" width="19.48" height="19.44"/><rect class="cls-8" x="461.75" y="353.55" width="19.48" height="19.5"/><rect class="cls-8" x="461.77" y="396.25" width="19.48" height="19.48"/><rect class="cls-8" x="461.79" y="438.92" width="19.48" height="19.47"/><rect class="cls-8" x="461.81" y="481.62" width="19.48" height="19.49"/><rect class="cls-8" x="461.83" y="524.28" width="19.48" height="19.51"/><rect class="cls-8" x="461.85" y="566.99" width="19.48" height="19.47"/><path class="cls-13" d="m567.81,134.81l-14.12,15.12c-1.02,1.07-.97,2.7,0,3.78l13.69,14.11c1.06,1.07,2.75,1.07,3.83.07.6-.55.85-1.29.85-1.99,0-.68-.26-1.38-.76-1.89,0,0-9.15-9.45-11.86-12.28,2.71-2.88,12.38-13.18,12.38-13.18.49-.53.76-1.23.76-1.86,0-.75-.36-1.45-.91-2.04-1.1-1.01-2.8-.96-3.85.15Z"/><path class="cls-13" d="m634.71,134.63c-.57.58-.89,1.28-.89,2.03,0,.64.25,1.33.72,1.86,0,0,9.68,10.29,12.39,13.17-2.71,2.83-11.85,12.29-11.85,12.29-.46.51-.7,1.21-.7,1.89,0,.7.23,1.44.79,1.99,1.1,1,2.82.99,3.86-.08l13.67-14.12c.97-1.08.97-2.71,0-3.78l-14.13-15.1c-1.02-1.11-2.78-1.16-3.86-.15Z"/><path class="cls-13" d="m612.69,136.19l-26.29,26.83c-1.06,1.05-1.06,2.79.07,3.85,1.04,1.05,2.78,1.02,3.83-.06l26.29-26.79c1.04-1.09,1.04-2.81-.04-3.83-1.06-1.08-2.78-1.08-3.85,0Z"/><path class="cls-13" d="m568.02,596.74l-14.12,15.09c-1.02,1.08-.97,2.74,0,3.77l13.69,14.14c1.06,1.06,2.75,1.1,3.83.07.59-.56.85-1.26.85-1.97,0-.7-.26-1.38-.76-1.91,0,0-9.15-9.45-11.86-12.25,2.71-2.89,12.38-13.21,12.38-13.21.49-.56.76-1.21.76-1.85,0-.76-.36-1.49-.91-2.02-1.1-1.01-2.8-.97-3.85.13Z"/><path class="cls-13" d="m634.93,596.58c-.57.53-.89,1.26-.89,2.02,0,.65.25,1.29.72,1.85,0,0,9.68,10.31,12.4,13.2-2.71,2.8-11.85,12.26-11.85,12.26-.47.53-.7,1.21-.7,1.9s.23,1.41.79,1.97c1.1,1.03,2.82.98,3.85-.08l13.67-14.15c.98-1.03.98-2.69,0-3.77l-14.13-15.08c-1.02-1.1-2.78-1.13-3.86-.13Z"/><path class="cls-13" d="m612.9,598.15l-26.29,26.79c-1.06,1.06-1.06,2.82.07,3.84,1.04,1.07,2.77,1.07,3.83-.02l26.29-26.8c1.04-1.07,1.04-2.81-.04-3.88-1.06-1.05-2.78-1.02-3.85.07Z"/><rect class="cls-10" x="532.79" y="179.55" width="88.74" height="17.53"/><rect class="cls-14" x="532.89" y="412.79" width="99.73" height="17.56"/><rect class="cls-14" x="532.97" y="568.71" width="67.92" height="17.59"/><rect class="cls-4" x="554.74" y="218.5" width="141.77" height="17.56"/><rect class="cls-15" x="554.85" y="452.39" width="129.78" height="17.56"/><rect class="cls-12" x="554.87" y="489.93" width="127.33" height="17.53"/><rect class="cls-4" x="554.89" y="528.93" width="68.19" height="17.54"/><rect class="cls-15" x="639.37" y="528.84" width="290.4" height="17.54"/><rect class="cls-15" x="697.13" y="489.84" width="211.19" height="17.53"/><rect class="cls-10" x="924.54" y="489.77" width="68.24" height="17.53"/><rect class="cls-12" x="1023.28" y="452.17" width="135.61" height="17.56"/><rect class="cls-4" x="698.42" y="452.28" width="307.83" height="17.56"/><rect class="cls-15" x="711.19" y="218.44" width="81.33" height="17.56"/><rect class="cls-15" x="554.78" y="297.47" width="93.74" height="17.54"/><polygon class="cls-4" points="815.98 314.81 663.79 315 663.78 297.47 815.95 297.24 815.98 314.81"/><rect class="cls-12" x="807.17" y="218.38" width="145.71" height="17.56"/><rect class="cls-12" x="554.76" y="258.46" width="161.57" height="17.54"/><rect class="cls-10" x="733" y="258.38" width="158.04" height="17.54"/><rect class="cls-4" x="906.71" y="258.31" width="110.47" height="17.53"/><rect class="cls-12" x="554.8" y="336.41" width="191.48" height="17.54"/><rect class="cls-15" x="760.95" y="336.34" width="102.17" height="17.54"/><rect class="cls-4" x="554.82" y="373.44" width="191.48" height="17.56"/><rect class="cls-12" x="760.97" y="373.35" width="177.56" height="17.56"/><rect class="cls-4" x="880.1" y="336.26" width="198.19" height="17.54"/><rect class="cls-4" x="638.55" y="179.51" width="45.79" height="17.54"/></svg>